<?xml version="1.0" standalone="no"?>
<!DOCTYPE svg PUBLIC "-//W3C//DTD SVG 1.1//EN" "http://www.w3.org/Graphics/SVG/1.1/DTD/svg11.dtd" >
<svg xmlns="http://www.w3.org/2000/svg">
<metadata>Generated by IcoMoon</metadata>
<defs>
<font id="icomoon" horiz-adv-x="1024">
<font-face units-per-em="1024" ascent="960" descent="-64" />
<missing-glyph horiz-adv-x="1024" />
<glyph unicode="&#x20;" horiz-adv-x="512" d="" />
<glyph unicode="&#xe900;" glyph-name="upload-circle-fill" d="M512 960c-282.77 0-512-229.23-512-512s229.23-512 512-512c282.77 0 512 229.23 512 512v0c0 282.77-229.23 512-512 512v0zM691.2 140.8h-354.133c-23.564 0-42.667 19.103-42.667 42.667s19.103 42.667 42.667 42.667v0h354.133c23.564 0 42.667-19.103 42.667-42.667s-19.103-42.667-42.667-42.667v0zM721.067 507.733c-7.712-7.668-18.343-12.407-30.080-12.407s-22.368 4.74-30.082 12.409l0.002-0.002-106.24 103.68v-240.213c0-23.564-19.103-42.667-42.667-42.667s-42.667 19.103-42.667 42.667v0 238.507l-101.973-102.4c-7.753-7.753-18.463-12.548-30.293-12.548-23.661 0-42.841 19.181-42.841 42.841 0 11.83 4.795 22.541 12.548 30.293l174.933 174.933c7.712 7.668 18.343 12.407 30.080 12.407s22.368-4.74 30.082-12.409l-0.002 0.002 179.2-174.507c7.795-7.733 12.621-18.45 12.621-30.293s-4.826-22.56-12.618-30.291l-0.003-0.003z" />
<glyph unicode="&#xe901;" glyph-name="delete-fill" d="M617.857 960h-211.713c-0.032 0-0.070 0-0.108 0-47.725 0-86.413-38.689-86.413-86.413 0-1.52 0.039-3.030 0.117-4.531l-0.009 0.21v-47.527h86.413v47.527c0 2.592 0 3.889 0 4.321h206.528c0.115-0.649 0.181-1.397 0.181-2.16s-0.066-1.511-0.192-2.238l0.011 0.077v-47.527h86.413v47.527c0.074 1.335 0.116 2.897 0.116 4.469 0 45.942-35.851 83.51-81.103 86.253l-0.241 0.012zM890.059 821.738h-756.118c-23.862 0-43.207-19.344-43.207-43.207s19.344-43.207 43.207-43.207v0h34.565v-677.914c4.321-66.589 58.326-119.244 125.093-121.406l0.207-0.005h427.747c69.201 0 125.3 56.099 125.3 125.3v0 674.025h43.207c23.862 0 43.207 19.344 43.207 43.207s-19.344 43.207-43.207 43.207v0zM453.671 234.127c0-23.862-19.344-43.207-43.207-43.207s-43.207 19.344-43.207 43.207v0 285.165c0 23.862 19.344 43.207 43.207 43.207s43.207-19.344 43.207-43.207v0zM656.743 234.127c0-23.862-19.344-43.207-43.207-43.207s-43.207 19.344-43.207 43.207v0 285.165c0 23.862 19.344 43.207 43.207 43.207s43.207-19.344 43.207-43.207v0z" />
<glyph unicode="&#xe902;" glyph-name="search-fill" d="M512 960c-282.77 0-512-229.23-512-512s229.23-512 512-512c282.77 0 512 229.23 512 512v0c0 282.77-229.23 512-512 512v0zM754.773 199.68c-7.712-7.668-18.343-12.407-30.080-12.407s-22.368 4.74-30.082 12.409l0.002-0.002-118.187 122.453c-34.515-23.46-77.108-37.456-122.97-37.456-121.827 0-220.587 98.76-220.587 220.587s98.76 220.587 220.587 220.587c121.827 0 220.587-98.76 220.587-220.587 0-45.862-13.996-88.456-37.95-123.742l0.494 0.771 119.040-123.733c7.042-7.587 11.364-17.785 11.364-28.993 0-11.642-4.663-22.196-12.223-29.894l0.006 0.006zM452.267 644.267c-75.405 0-136.533-61.128-136.533-136.533s61.128-136.533 136.533-136.533v0c74.555 2.076 134.457 61.978 136.529 136.339l0.004 0.195c-0.481 75.211-61.322 136.053-136.487 136.533h-0.046z" />
<glyph unicode="&#xe903;" glyph-name="info-fill" d="M512 960c-282.77 0-512-229.23-512-512s229.23-512 512-512c282.77 0 512 229.23 512 512v0c0 282.77-229.23 512-512 512v0zM512 725.333c30.633 0 55.467-24.833 55.467-55.467s-24.833-55.467-55.467-55.467c-30.633 0-55.467 24.833-55.467 55.467v0c0 30.633 24.833 55.467 55.467 55.467v0zM588.8 187.733h-157.867c-23.564 0-42.667 19.103-42.667 42.667s19.103 42.667 42.667 42.667v0h38.4v192h-12.8c-23.564 0-42.667 19.103-42.667 42.667s19.103 42.667 42.667 42.667v0h55.467c23.564 0 42.667-19.103 42.667-42.667v0-234.667h34.133c23.564 0 42.667-19.103 42.667-42.667s-19.103-42.667-42.667-42.667v0z" />
<glyph unicode="&#xe904;" glyph-name="close-fill" d="M512 960c-282.77 0-512-229.23-512-512s229.23-512 512-512c282.77 0 512 229.23 512 512v0c0 282.77-229.23 512-512 512v0zM701.013 315.307c7.287-7.645 11.77-18.019 11.77-29.44 0-23.584-19.119-42.703-42.703-42.703-12.164 0-23.139 5.085-30.917 13.246l-0.016 0.017-125.44 131.84-128-125.013c-7.669-7.411-18.128-11.977-29.653-11.977-23.581 0-42.697 19.116-42.697 42.697 0 12.056 4.996 22.944 13.032 30.708l130.572 125.452-128 134.4c-5.026 6.912-8.040 15.569-8.040 24.929 0 23.564 19.103 42.667 42.667 42.667 9.253 0 17.819-2.946 24.809-7.95l-0.129 0.088 128-133.973 132.267 128c7.317 6.072 16.806 9.757 27.155 9.757 23.564 0 42.667-19.103 42.667-42.667 0-10.988-4.153-21.005-10.976-28.568l0.034 0.038-132.693-128z" />
<glyph unicode="&#xe905;" glyph-name="checkmark-fill" d="M512 960c-282.77 0-512-229.23-512-512s229.23-512 512-512c282.77 0 512 229.23 512 512v0c0 282.77-229.23 512-512 512v0zM725.333 523.947l-247.467-238.933c-7.589-7.054-17.796-11.383-29.013-11.383s-21.424 4.329-29.040 11.407l-115.173 102.376c-9.767 7.885-15.963 19.857-15.963 33.277 0 23.564 19.103 42.667 42.667 42.667 11.719 0 22.334-4.725 30.045-12.373l-0.003 0.003 85.333-75.947 218.88 213.333c7.669 7.411 18.128 11.977 29.653 11.977 23.581 0 42.697-19.116 42.697-42.697 0-12.056-4.996-22.944-13.032-30.708l-0.012-0.012z" />
<glyph unicode="&#xe906;" glyph-name="expand-fill" d="M512 960c-282.77 0-512-229.23-512-512s229.23-512 512-512c282.77 0 512 229.23 512 512v0c0 282.77-229.23 512-512 512v0zM756.053 474.027l-213.333-166.4c-7.16-5.626-16.303-9.023-26.24-9.023s-19.080 3.397-26.332 9.093l0.092-0.070-213.333 166.4c-10.067 7.89-16.476 20.050-16.476 33.707 0 23.592 19.125 42.716 42.716 42.716 9.935 0 19.077-3.391 26.333-9.080l-0.093 0.070 186.88-145.92 186.88 145.92c7.163 5.618 16.305 9.010 26.24 9.010 23.592 0 42.716-19.125 42.716-42.716 0-13.657-6.409-25.817-16.383-33.636l-0.093-0.070z" />
<glyph unicode="&#xe907;" glyph-name="search" d="M512 960c-282.77 0-512-229.23-512-512s229.23-512 512-512c282.77 0 512 229.23 512 512v0c0 282.77-229.23 512-512 512v0zM512 21.333c-235.641 0-426.667 191.025-426.667 426.667s191.025 426.667 426.667 426.667c235.641 0 426.667-191.025 426.667-426.667v0c0-235.641-191.025-426.667-426.667-426.667v0zM618.667 398.080c18.708 28.556 29.846 63.535 29.867 101.115v0.005c0 103.682-84.051 187.733-187.733 187.733s-187.733-84.051-187.733-187.733c0-103.682 84.051-187.733 187.733-187.733v0c35.682 0.119 68.969 10.265 97.222 27.766l-0.796-0.459 91.733-87.893c7.317-6.072 16.806-9.757 27.155-9.757 23.564 0 42.667 19.103 42.667 42.667 0 10.988-4.153 21.005-10.976 28.568l0.034-0.038zM460.8 398.080c-56.554 0-102.4 45.846-102.4 102.4v0c0.712 56.265 46.135 101.688 102.332 102.399l0.068 0.001c56.554 0 102.4-45.846 102.4-102.4s-45.846-102.4-102.4-102.4v0z" />
<glyph unicode="&#xe908;" glyph-name="expand" d="M512 874.667c235.641 0 426.667-191.025 426.667-426.667s-191.025-426.667-426.667-426.667c-235.641 0-426.667 191.025-426.667 426.667v0c0 235.641 191.025 426.667 426.667 426.667v0zM512 960c-282.77 0-512-229.23-512-512s229.23-512 512-512c282.77 0 512 229.23 512 512v0c0 282.77-229.23 512-512 512v0zM512 294.4c-0.087-0.001-0.19-0.001-0.293-0.001-9.901 0-19.015 3.373-26.255 9.032l0.094-0.071-213.333 166.4c-10.121 7.946-16.562 20.181-16.562 33.92 0 23.757 19.259 43.016 43.016 43.016 10.017 0 19.235-3.424 26.546-9.166l-0.093 0.070 186.88-146.347 186.88 146.347c7.163 5.618 16.305 9.010 26.24 9.010 23.592 0 42.716-19.125 42.716-42.716 0-13.657-6.409-25.817-16.383-33.636l-0.093-0.070-213.333-166.4c-7.069-5.711-16.123-9.224-25.991-9.386h-0.036z" />
<glyph unicode="&#xe909;" glyph-name="upload-rect" d="M770.039-63.704h-511.704c-2.635-0.189-5.71-0.296-8.81-0.296-71.029 0-128.876 56.441-131.137 126.921l-0.005 0.208-4.374 769.305c2.029 70.88 59.973 127.565 131.156 127.565 3.095 0 6.166-0.107 9.208-0.318l-0.41 0.023h511.704c2.635 0.189 5.71 0.296 8.81 0.296 71.029 0 128.876-56.441 131.137-126.921l0.005-0.208 4.374-769.742c-2.267-70.687-60.113-127.129-131.143-127.129-3.1 0-6.175 0.108-9.221 0.319l0.411-0.023zM253.961 872.233c-25.804 0-52.482-14.87-52.482-39.362l4.374-769.305c0-24.929 26.679-39.799 52.482-39.799h511.704c25.804 0 52.482 14.87 52.482 39.362l-4.374 769.742c0 24.492-26.679 39.362-52.482 39.362zM691.315 115.611h-345.509c-24.154 0-43.735 19.581-43.735 43.735s19.581 43.735 43.735 43.735v0h345.509c24.154 0 43.735-19.581 43.735-43.735s-19.581-43.735-43.735-43.735v0zM520.747 325.541c-24.154 0-43.735 19.581-43.735 43.735v0 253.228l-108.901-108.901c-7.93-7.984-18.914-12.927-31.052-12.927-24.168 0-43.76 19.592-43.76 43.76 0 12.030 4.854 22.925 12.71 30.836l183.687 183.687c8.096 7.675 18.994 12.464 31.009 12.683l0.043 0.001c12.165-0.052 23.15-5.063 31.045-13.114l0.007-0.007 179.315-183.689c7.724-7.885 12.491-18.693 12.491-30.615 0-24.169-19.593-43.762-43.762-43.762-12.248 0-23.32 5.031-31.264 13.14l-0.007 0.007-104.090 106.714v-251.041c0-24.154-19.581-43.735-43.735-43.735v0z" />
<glyph unicode="&#xe90a;" glyph-name="upload" d="M805.167-64h-583.859c-24.804 0-44.912 20.108-44.912 44.912s20.108 44.912 44.912 44.912v0h583.859c24.804 0 44.912-20.108 44.912-44.912s-20.108-44.912-44.912-44.912v0zM513.237 218.947c-24.804 0-44.912 20.108-44.912 44.912v0 542.989l-233.544-233.544c-8.121-8.065-19.31-13.050-31.663-13.050-24.818 0-44.938 20.119-44.938 44.938 0 12.465 5.075 23.745 13.272 31.885l0.003 0.002 309.895 309.895c8.114 8.050 19.29 13.025 31.628 13.025 0.091 0 0.183 0 0.274-0.001h-0.014c0.077 0 0.168 0.001 0.26 0.001 12.338 0 23.514-4.975 31.631-13.028l309.892-309.892c6.712-7.802 10.799-18.031 10.799-29.213 0-24.804-20.108-44.912-44.912-44.912-11.183 0-21.411 4.087-29.273 10.849l0.059-0.050-233.544 233.095v-542.989c0-24.804-20.108-44.912-44.912-44.912v0z" />
<glyph unicode="&#xe90b;" glyph-name="upload-circle" d="M512 874.667c235.641 0 426.667-191.025 426.667-426.667s-191.025-426.667-426.667-426.667c-235.641 0-426.667 191.025-426.667 426.667v0c0 235.641 191.025 426.667 426.667 426.667v0zM512 960c-282.77 0-512-229.23-512-512s229.23-512 512-512c282.77 0 512 229.23 512 512v0c0 282.77-229.23 512-512 512v0zM512 324.267c-23.564 0-42.667 19.103-42.667 42.667v0 285.867c0 23.564 19.103 42.667 42.667 42.667s42.667-19.103 42.667-42.667v0-285.867c0-23.564-19.103-42.667-42.667-42.667v0zM691.2 490.667c-0.073 0-0.16-0.001-0.247-0.001-11.721 0-22.338 4.726-30.049 12.377l0.003-0.003-148.48 148.907-144.64-148.48c-7.793-8.010-18.676-12.979-30.72-12.979-23.663 0-42.845 19.183-42.845 42.845 0 11.619 4.625 22.158 12.135 29.876l-0.009-0.010 174.933 179.2c7.709 7.861 18.426 12.749 30.284 12.8h0.010c11.735-0.383 22.319-5.017 30.326-12.403l-0.032 0.029 179.2-179.2c7.796-7.733 12.621-18.45 12.621-30.294 0-23.564-19.103-42.667-42.667-42.667-0.087 0-0.174 0-0.262 0.001h0.013zM691.2 136.533h-354.133c-23.564 0-42.667 19.103-42.667 42.667s19.103 42.667 42.667 42.667v0h354.133c23.564 0 42.667-19.103 42.667-42.667s-19.103-42.667-42.667-42.667v0z" />
<glyph unicode="&#xe90c;" glyph-name="cart" d="M811.572 140.238h-448.431c-0.484-0.019-1.053-0.030-1.624-0.030-20.066 0-36.991 13.443-42.263 31.813l-0.076 0.31-187.286 671.327h-87.928c-24.281 0-43.964 19.683-43.964 43.964s19.683 43.964 43.964 43.964v0h121.34c0.484 0.019 1.053 0.030 1.624 0.030 20.066 0 36.991-13.443 42.263-31.813l0.076-0.31 189.044-671.327h413.26c24.281 0 43.964-19.683 43.964-43.964s-19.683-43.964-43.964-43.964v0zM477.447 12.743c0-26.709-21.652-48.36-48.36-48.36s-48.36 21.652-48.36 48.36c0 26.709 21.652 48.36 48.36 48.36s48.36-21.652 48.36-48.36zM820.365 12.743c0-26.709-21.652-48.36-48.36-48.36s-48.36 21.652-48.36 48.36c0 26.709 21.652 48.36 48.36 48.36s48.36-21.652 48.36-48.36zM780.797 324.886h-457.224c-24.281 0-43.964 19.683-43.964 43.964s19.683 43.964 43.964 43.964v0h457.224c50.67 0.511 93.25 34.558 106.637 80.981l0.195 0.792 34.292 131.891h-677.482c-24.281 0-43.964 19.683-43.964 43.964s19.683 43.964 43.964 43.964v0h734.196c0.418 0.014 0.909 0.022 1.402 0.022 24.281 0 43.964-19.683 43.964-43.964 0-3.914-0.511-7.708-1.471-11.32l0.069 0.307-49.679-185.088c-22.661-86.483-100.031-149.287-192.1-149.477h-0.022z" />
<glyph unicode="&#xe90d;" glyph-name="upload-cloud" d="M790.628 214.19h-136.022v85.014h136.022c0.512-0.006 1.117-0.010 1.722-0.010 80.333 0 145.624 64.407 147.050 144.4l0.002 0.133c0.004 0.41 0.007 0.894 0.007 1.379 0 75.011-57.485 136.596-130.804 143.105l-0.548 0.039-38.681 3.401v60.36c0 0.014 0 0.031 0 0.047 0 105.641-85.639 191.281-191.281 191.281-1.495 0-2.985-0.017-4.472-0.051l0.221 0.004c-88.279-0.561-162.869-58.538-188.343-138.439l-0.388-1.409-11.052-36.981-38.256 7.651c-16.259 4.028-35.201 6.769-54.632 7.629l-0.626 0.022c-0.51 0.005-1.113 0.008-1.717 0.008-106.156 0-192.38-85.338-193.813-191.153l-0.001-0.135c0-0.014 0-0.031 0-0.047 0-105.641 85.639-191.281 191.281-191.281 1.495 0 2.985 0.017 4.472 0.051l-0.221-0.004h110.518v-85.014h-110.518c-1.518-0.030-3.308-0.047-5.102-0.047-152.124 0-275.444 123.321-275.444 275.444 0 0.316 0.001 0.631 0.002 0.946v-0.049c1.44 152.903 125.726 276.3 278.833 276.3 0.602 0 1.204-0.002 1.805-0.006h-0.093c12.994-0.112 25.644-1.19 37.995-3.165l-1.439 0.19c46.24 97.547 143.67 163.926 256.666 164.501h0.076c1.491 0.029 3.248 0.046 5.010 0.046 147.355 0 267.685-115.711 275.084-261.227l0.027-0.661c98.647-26.655 170.036-115.346 170.036-220.711 0-0.712-0.003-1.423-0.010-2.134l0.001 0.109c-1.439-127.078-104.791-229.54-232.073-229.54-0.453 0-0.906 0.001-1.359 0.004h0.070zM692.863 396.969c-0.073 0-0.159-0.001-0.246-0.001-11.677 0-22.254 4.708-29.937 12.33l0.003-0.003-135.597 136.022-136.022-136.022c-7.384-6.353-17.065-10.221-27.649-10.221-23.476 0-42.507 19.031-42.507 42.507 0 10.584 3.868 20.264 10.268 27.705l-0.047-0.056 165.777 165.777c7.68 7.619 18.257 12.328 29.934 12.328 0.086 0 0.173 0 0.259-0.001h-0.013c0.073 0 0.159 0.001 0.246 0.001 11.677 0 22.254-4.708 29.937-12.33l165.774-165.774c7.766-7.704 12.574-18.381 12.574-30.181 0-23.476-19.031-42.507-42.507-42.507-0.087 0-0.174 0-0.261 0.001h0.013zM527.086-32.35c-23.476 0-42.507 19.031-42.507 42.507v0 569.592c0 23.476 19.031 42.507 42.507 42.507s42.507-19.031 42.507-42.507v0-569.592c0-23.476-19.031-42.507-42.507-42.507v0z" />
<glyph unicode="&#xe90e;" glyph-name="delete" d="M721.553-42.397h-427.747c-56.203 1.145-101.583 45.921-103.69 101.773l-0.006 0.194v740.564h635.139v-738.835c0-57.27-46.426-103.696-103.696-103.696v0zM233.316 756.928v-695.629c1.365-32.844 27.646-59.124 60.363-60.485l0.127-0.004h427.747c33.407 0 60.489 27.082 60.489 60.489v0 695.629zM721.553-64h-427.747c-66.974 2.167-120.979 54.822-125.28 121.027l-0.020 0.384v764.327h678.346v-760.439c0-69.201-56.099-125.3-125.3-125.3v0zM254.92 735.325v-674.025c2.034-20.606 18.28-36.852 38.707-38.872l0.179-0.014h427.747c21.476 0 38.886 17.41 38.886 38.886v0 674.025zM656.743 761.249c-23.862 0-43.207 19.344-43.207 43.207v0 64.81c0.115 0.649 0.181 1.397 0.181 2.16s-0.066 1.511-0.192 2.238l0.011-0.077h-206.96s0 0 0-4.321v-64.81c0-23.862-19.344-43.207-43.207-43.207s-43.207 19.344-43.207 43.207v0 64.81c-0.069 1.29-0.108 2.801-0.108 4.321 0 47.611 38.504 86.229 86.072 86.413h211.731c45.88-2.306 82.206-40.066 82.206-86.311 0-1.556-0.041-3.102-0.122-4.638l0.009 0.214v-64.81c0-23.862-19.344-43.207-43.207-43.207v0zM613.536 190.92c-23.862 0-43.207 19.344-43.207 43.207v0 285.165c0 23.862 19.344 43.207 43.207 43.207s43.207-19.344 43.207-43.207v0-285.165c0-23.862-19.344-43.207-43.207-43.207v0zM410.464 190.92c-23.862 0-43.207 19.344-43.207 43.207v0 285.165c0 23.862 19.344 43.207 43.207 43.207s43.207-19.344 43.207-43.207v0-285.165c0-23.862-19.344-43.207-43.207-43.207v0zM890.059 735.325h-756.118c-23.862 0-43.207 19.344-43.207 43.207s19.344 43.207 43.207 43.207v0h756.118c23.862 0 43.207-19.344 43.207-43.207s-19.344-43.207-43.207-43.207v0z" />
<glyph unicode="&#xe90f;" glyph-name="arrow" d="M512 874.667c235.641 0 426.667-191.025 426.667-426.667s-191.025-426.667-426.667-426.667c-235.641 0-426.667 191.025-426.667 426.667v0c0 235.641 191.025 426.667 426.667 426.667v0zM512 960c-282.77 0-512-229.23-512-512s229.23-512 512-512c282.77 0 512 229.23 512 512v0c0 282.77-229.23 512-512 512v0zM618.667 396.8h-320c-23.564 0-42.667 19.103-42.667 42.667s19.103 42.667 42.667 42.667v0h320c23.564 0 42.667-19.103 42.667-42.667s-19.103-42.667-42.667-42.667v0zM499.2 192c-0.074 0-0.161-0.001-0.248-0.001-23.564 0-42.667 19.103-42.667 42.667 0 11.844 4.826 22.561 12.619 30.291l170.67 170.67-170.667 170.667c-6.377 7.412-10.259 17.129-10.259 27.753 0 23.564 19.103 42.667 42.667 42.667 10.624 0 20.341-3.883 27.809-10.307l-0.056 0.047 200.533-200.533c7.668-7.712 12.407-18.343 12.407-30.080s-4.74-22.368-12.409-30.082l-200.531-200.531c-7.555-7.921-18.098-12.934-29.813-13.226l-0.053-0.001z" />
<glyph unicode="&#xe910;" glyph-name="info" d="M512 874.667c235.641 0 426.667-191.025 426.667-426.667s-191.025-426.667-426.667-426.667c-235.641 0-426.667 191.025-426.667 426.667v0c0 235.641 191.025 426.667 426.667 426.667v0zM512 960c-282.77 0-512-229.23-512-512s229.23-512 512-512c282.77 0 512 229.23 512 512v0c0 282.77-229.23 512-512 512v0zM567.467 669.867c0-30.633-24.833-55.467-55.467-55.467s-55.467 24.833-55.467 55.467c0 30.633 24.833 55.467 55.467 55.467s55.467-24.833 55.467-55.467zM588.8 187.733h-157.867c-23.564 0-42.667 19.103-42.667 42.667s19.103 42.667 42.667 42.667v0h38.4v192h-12.8c-23.564 0-42.667 19.103-42.667 42.667s19.103 42.667 42.667 42.667v0h55.467c23.564 0 42.667-19.103 42.667-42.667v0-234.667h34.133c23.564 0 42.667-19.103 42.667-42.667s-19.103-42.667-42.667-42.667v0z" />
<glyph unicode="&#xe911;" glyph-name="error" d="M704-63.999h-388.266c-0.073 0-0.16-0.001-0.247-0.001-11.721 0-22.338 4.726-30.049 12.377l-273.063 273.063c-7.648 7.709-12.374 18.326-12.374 30.047 0 0.087 0 0.173 0.001 0.26v-0.013 388.266c0.051 11.655 4.767 22.2 12.376 29.869l-0.003-0.003 273.066 277.333c7.709 7.861 18.426 12.749 30.284 12.8h388.276c0.073 0 0.16 0.001 0.247 0.001 11.721 0 22.338-4.726 30.049-12.377l277.33-277.33c7.648-7.709 12.374-18.326 12.374-30.047 0-0.087 0-0.173-0.001-0.26v0.013-388.266c-0.051-11.868-4.939-22.584-12.793-30.287l-0.007-0.007-277.333-273.066c-7.667-7.606-18.211-12.323-29.857-12.373h-0.010zM333.227 21.334h353.706l252.16 248.32v352.853l-252.16 252.16h-353.279l-248.32-252.16v-353.279zM665.6 243.2c-0.078-0.001-0.171-0.001-0.263-0.001-12.141 0-23.098 5.071-30.868 13.211l-0.016 0.017-128 134.4-132.266-128c-7.669-7.411-18.128-11.977-29.653-11.977-23.581 0-42.697 19.116-42.697 42.697 0 12.056 4.996 22.944 13.032 30.708l0.012 0.012 132.693 128-124.586 132.693c-7.341 7.7-11.858 18.149-11.858 29.653 0 23.751 19.254 43.005 43.005 43.005 12.247 0 23.298-5.119 31.13-13.335l0.016-0.017 125.013-131.84 128 125.013c7.317 6.072 16.806 9.757 27.155 9.757 23.564 0 42.667-19.102 42.667-42.667 0-10.988-4.153-21.005-10.976-28.568l0.034 0.038-130.56-125.44 128-134.4c7.295-7.642 11.785-18.017 11.785-29.441 0-23.564-19.102-42.667-42.667-42.667-0.093 0-0.186 0-0.279 0.001h0.014z" />
<glyph unicode="&#xe912;" glyph-name="warning" d="M898.34-27.457h-771.379c-45.794 0.28-85.942 24.192-108.894 60.147l-0.313 0.524c-11.15 18.197-17.754 40.227-17.754 63.799 0 21.737 5.616 42.163 15.475 59.906l-0.322-0.631 377.022 702.042c21.586 39.118 62.57 65.175 109.64 65.175s88.054-26.057 109.314-64.533l0.325-0.642 393.923-701.175c11.682-18.274 18.621-40.56 18.621-64.467 0-21.512-5.618-41.713-15.467-59.213l0.314 0.606c-21.879-37.091-61.635-61.584-107.112-61.584-1.194 0-2.384 0.017-3.57 0.050l0.174-0.004zM501.816 839.261c-0.256 0.006-0.558 0.010-0.861 0.010-14.002 0-26.18-7.813-32.411-19.317l-0.096-0.195-377.022-702.042c-3.26-5.386-5.189-11.893-5.189-18.851s1.929-13.465 5.282-19.016l-0.093 0.165c7.108-11.98 19.96-19.894 34.663-19.935h772.252c0.558-0.029 1.212-0.046 1.869-0.046 13.883 0 26.034 7.419 32.704 18.508l0.096 0.172c2.534 4.731 4.022 10.349 4.022 16.316 0 7.706-2.483 14.831-6.692 20.621l0.070-0.101-394.79 702.475c-6.369 11.949-18.749 19.943-32.997 19.943-0.283 0-0.565-0.003-0.847-0.009l0.042 0.001zM503.983 150.22c-23.934 0-43.336 19.402-43.336 43.336v0 21.668c0 23.934 19.402 43.336 43.336 43.336s43.336-19.402 43.336-43.336v0-21.668c0-23.934-19.402-43.336-43.336-43.336v0zM503.983 345.231c-23.934 0-43.336 19.402-43.336 43.336v0 203.679c0 23.934 19.402 43.336 43.336 43.336s43.336-19.402 43.336-43.336v0-203.679c0-23.934-19.402-43.336-43.336-43.336v0z" />
<glyph unicode="&#xe913;" glyph-name="checkmark" d="M448 273.067c-10.82 0.016-20.693 4.057-28.205 10.706l0.045-0.039-115.2 102.4c-9.767 7.885-15.963 19.857-15.963 33.277 0 23.564 19.103 42.667 42.667 42.667 11.719 0 22.334-4.725 30.045-12.373l-0.003 0.003 85.333-75.947 218.88 213.333c7.669 7.411 18.128 11.977 29.653 11.977 23.581 0 42.697-19.116 42.697-42.697 0-12.056-4.996-22.944-13.032-30.708l-0.012-0.012-247.467-238.933c-7.401-7.984-17.773-13.123-29.347-13.65l-0.093-0.003zM512 874.667c235.641 0 426.667-191.025 426.667-426.667s-191.025-426.667-426.667-426.667c-235.641 0-426.667 191.025-426.667 426.667v0c0 235.641 191.025 426.667 426.667 426.667v0zM512 960c-282.77 0-512-229.23-512-512s229.23-512 512-512c282.77 0 512 229.23 512 512v0c0 282.77-229.23 512-512 512v0z" />
<glyph unicode="&#xe914;" glyph-name="close" d="M669.867 243.2c-0.078-0.001-0.171-0.001-0.263-0.001-12.141 0-23.098 5.071-30.868 13.211l-125.029 131.857-128-125.013c-7.669-7.411-18.128-11.977-29.653-11.977-23.581 0-42.697 19.116-42.697 42.697 0 12.056 4.996 22.944 13.032 30.708l130.572 125.452-128 134.4c-5.026 6.912-8.040 15.569-8.040 24.929 0 23.564 19.103 42.667 42.667 42.667 9.253 0 17.819-2.946 24.809-7.95l-0.129 0.088 128-133.973 132.267 128c7.317 6.072 16.806 9.757 27.155 9.757 23.564 0 42.667-19.103 42.667-42.667 0-10.988-4.153-21.005-10.976-28.568l0.034 0.038-132.693-128 125.44-132.267c7.295-7.642 11.785-18.017 11.785-29.441 0-23.564-19.103-42.667-42.667-42.667-0.093 0-0.186 0-0.279 0.001h0.014zM512 874.667c235.641 0 426.667-191.025 426.667-426.667s-191.025-426.667-426.667-426.667c-235.641 0-426.667 191.025-426.667 426.667v0c0 235.641 191.025 426.667 426.667 426.667v0zM512 960c-282.77 0-512-229.23-512-512s229.23-512 512-512c282.77 0 512 229.23 512 512v0c0 282.77-229.23 512-512 512v0z" />
<glyph unicode="&#xe915;" glyph-name="upload-rect-fill" d="M853.333 833.094c0 70.088-56.818 126.906-126.906 126.906v0h-433.231c-69.274-2.352-124.799-58.029-126.901-127.146l-0.005-0.198 4.376-769.75c0-70.088 56.818-126.906 126.906-126.906v0h433.231c69.274 2.352 124.799 58.029 126.901 127.146l0.005 0.198zM305.887 610.352l183.795 183.795c8.079 7.715 18.998 12.517 31.036 12.69h0.034c12.172-0.052 23.163-5.066 31.063-13.121l0.007-0.007 179.419-183.795c7.729-7.89 12.499-18.704 12.499-30.632 0-24.183-19.604-43.787-43.787-43.787-12.255 0-23.334 5.034-31.282 13.148l-0.007 0.007-104.15 106.776v-347.46c0-24.168-19.592-43.761-43.761-43.761s-43.761 19.592-43.761 43.761v0 350.085l-108.964-109.839c-7.952-7.952-18.936-12.87-31.070-12.87-24.267 0-43.94 19.672-43.94 43.94 0 12.134 4.918 23.119 12.87 31.070v0zM713.299 45.402h-389.47c-24.168 0-43.761 19.592-43.761 43.761s19.592 43.761 43.761 43.761v0h389.47c24.168 0 43.761-19.592 43.761-43.761s-19.592-43.761-43.761-43.761v0z" />
<glyph unicode="&#xe916;" glyph-name="upload-cloud-fill" d="M857.583 543.142c-7.225 146.918-128.101 263.301-276.16 263.301-1.911 0-3.817-0.019-5.718-0.058l0.284 0.005c-112.822-1.271-209.827-67.707-255.254-163.383l-0.74-1.733c-11.529 1.881-24.829 2.967-38.379 2.987h-0.020c-0.51 0.003-1.114 0.005-1.718 0.005-153.679 0-278.43-123.858-279.875-277.195l-0.001-0.137c-0.001-0.267-0.001-0.584-0.001-0.901 0-152.692 123.782-276.474 276.474-276.474 1.801 0 3.597 0.017 5.39 0.051l-0.269-0.004h200.529v289.7l-93.865-93.865c-7.412-6.377-17.129-10.259-27.752-10.259-23.564 0-42.666 19.102-42.666 42.666 0 10.624 3.883 20.34 10.306 27.808l-0.047-0.056 166.396 166.396c7.712 7.667 18.342 12.407 30.079 12.407s22.367-4.739 30.081-12.409l166.394-166.394c9.153-7.872 14.914-19.466 14.914-32.406 0-23.564-19.102-42.666-42.666-42.666-12.94 0-24.535 5.761-32.359 14.857l-0.047 0.056-93.438 93.865v-289.7h221.862c0.511-0.004 1.116-0.006 1.721-0.006 127.76 0 231.498 102.847 232.94 230.265l0.001 0.136c0.013 0.92 0.021 2.007 0.021 3.095 0 104.127-69.592 192-164.802 219.645l-1.616 0.402z" />
<glyph unicode="&#xe917;" glyph-name="cart-fill" d="M811.572 140.238h-448.431c-0.484-0.019-1.053-0.030-1.624-0.030-20.066 0-36.991 13.443-42.263 31.813l-0.076 0.31-187.286 671.327h-87.928c-24.281 0-43.964 19.683-43.964 43.964s19.683 43.964 43.964 43.964v0h121.34c0.484 0.019 1.053 0.030 1.624 0.030 20.066 0 36.991-13.443 42.263-31.813l0.076-0.31 189.044-671.327h413.26c24.281 0 43.964-19.683 43.964-43.964s-19.683-43.964-43.964-43.964v0zM477.447 12.743c0-26.709-21.652-48.36-48.36-48.36s-48.36 21.652-48.36 48.36c0 26.709 21.652 48.36 48.36 48.36s48.36-21.652 48.36-48.36zM820.365 12.743c0-26.709-21.652-48.36-48.36-48.36s-48.36 21.652-48.36 48.36c0 26.709 21.652 48.36 48.36 48.36s48.36-21.652 48.36-48.36zM244.439 672.2h734.196l-48.36-189.044c-18.681-66.249-78.462-114.038-149.446-114.306h-457.255zM780.797 324.886h-457.224c-24.281 0-43.964 19.683-43.964 43.964s19.683 43.964 43.964 43.964v0h457.224c50.67 0.511 93.25 34.558 106.637 80.981l0.195 0.792 34.292 131.891h-677.482c-24.281 0-43.964 19.683-43.964 43.964s19.683 43.964 43.964 43.964v0h734.196c0.418 0.014 0.909 0.022 1.402 0.022 24.281 0 43.964-19.683 43.964-43.964 0-3.914-0.511-7.708-1.471-11.32l0.069 0.307-49.679-185.088c-22.661-86.483-100.031-149.287-192.1-149.477h-0.022z" />
<glyph unicode="&#xe918;" glyph-name="arrow-fill" d="M512 960c-282.77 0-512-229.23-512-512s229.23-512 512-512c282.77 0 512 229.23 512 512v0c0 282.77-229.23 512-512 512v0zM730.027 409.173l-200.533-200.533c-7.412-6.377-17.129-10.259-27.753-10.259-23.564 0-42.667 19.103-42.667 42.667 0 10.624 3.883 20.341 10.307 27.809l-0.047-0.056 131.84 131.84h-302.507c-23.564 0-42.667 19.103-42.667 42.667s19.103 42.667 42.667 42.667v0h293.973l-123.733 123.733c-6.377 7.412-10.259 17.129-10.259 27.753 0 23.564 19.103 42.667 42.667 42.667 10.624 0 20.341-3.883 27.809-10.307l-0.056 0.047 200.533-200.533c7.796-7.733 12.622-18.45 12.622-30.295 0-11.631-4.654-22.176-12.202-29.872l0.007 0.007z" />
<glyph unicode="&#xe919;" glyph-name="error-fill" d="M1023.488 657.303l-301.929 302.441h-423.724l-297.835-302.441v-423.724l297.323-297.323h424.236l302.441 297.835zM733.329 288.848c8.74-9.17 14.117-21.612 14.117-35.31 0-28.287-22.931-51.219-51.219-51.219-14.589 0-27.753 6.1-37.082 15.888l-0.020 0.021-153.523 160.688-158.641-153.523c-9.199-8.888-21.743-14.365-35.566-14.365-28.283 0-51.211 22.928-51.211 51.211 0 14.46 5.993 27.519 15.63 36.832l0.015 0.014 159.152 153.523-149.941 159.664c-8.805 9.235-14.223 21.768-14.223 35.566 0 28.487 23.093 51.58 51.58 51.58 14.689 0 27.944-6.14 37.338-15.993l0.020-0.021 149.941-158.129 153.523 149.941c8.776 7.283 20.157 11.703 32.57 11.703 28.263 0 51.174-22.912 51.174-51.174 0-13.179-4.982-25.194-13.164-34.265l0.040 0.045-156.594-150.453z" />
<glyph unicode="&#xe91a;" glyph-name="warning-fill" d="M1005.386 157.901l-393.779 700.918c-21.578 39.104-62.547 65.151-109.6 65.151s-88.022-26.047-109.274-64.509l-0.325-0.642-376.884-701.785c-9.768-17.273-15.524-37.932-15.524-59.935 0-23.818 6.744-46.060 18.427-64.922l-0.305 0.528c23.256-36.465 63.389-60.369 109.125-60.648h771.138c0.791-0.018 1.723-0.029 2.658-0.029 45.979 0 86.109 25.047 107.489 62.24l0.319 0.602c9.532 16.888 15.148 37.081 15.148 58.585 0 23.898-6.936 46.176-18.905 64.931l0.291-0.487zM547.494 192.99c0-23.925-19.395-43.32-43.32-43.32s-43.32 19.395-43.32 43.32v0 21.66c0 23.925 19.395 43.32 43.32 43.32s43.32-19.395 43.32-43.32v0zM547.494 387.93c0-23.925-19.395-43.32-43.32-43.32s-43.32 19.395-43.32 43.32v0 203.604c0 23.925 19.395 43.32 43.32 43.32s43.32-19.395 43.32-43.32v0z" />
<glyph unicode="&#xe938;" glyph-name="service-application-and-document-checks" d="M735.399 87.783h-448.935c-12.827 0-21.378 8.551-21.378 21.378s8.551 21.378 21.378 21.378h448.935c12.827 0 21.378-8.551 21.378-21.378s-8.551-21.378-21.378-21.378zM735.399 209.637h-448.935c-12.827 0-21.378 8.551-21.378 21.378s8.551 21.378 21.378 21.378h448.935c12.827 0 21.378-8.551 21.378-21.378s-8.551-21.378-21.378-21.378zM701.194 917.244c81.236 0 147.507-66.271 147.507-147.507v-788.843h-675.541v936.351c0 0 528.033 0 528.033 0zM701.194 960h-570.789v-1024h763.19v831.599c0 106.889-85.511 192.401-192.401 192.401zM463.9 425.553c-4.276 0-10.689 2.138-14.965 6.413l-79.098 70.547c-8.551 8.551-8.551 21.378-2.138 29.929 8.551 8.551 21.378 8.551 29.929 2.138l64.134-57.72 160.334 153.921c8.551 8.551 21.378 8.551 29.929 0s8.551-21.378 0-29.929l-173.161-168.885c-4.276-4.276-10.689-6.413-14.965-6.413z" />
<glyph unicode="&#xe939;" glyph-name="service-bronze" d="M747.72 917.333l102.4-102.4v-731.733l-102.4-102.4h-469.333l-102.4 102.4v731.733l102.4 102.4h469.333zM764.787 960h-505.6l-128-128v-768l128-128h505.6l128 128v768c2.133 0-125.867 128-128 128zM559.987 354.133c-6.4 0-10.667 2.133-14.933 6.4l-32 34.133-32-34.133c-6.4-8.533-19.2-8.533-27.733-2.133s-10.667 19.2-6.4 27.733l23.467 40.533-42.667 19.2c-10.667 4.267-14.933 14.933-10.667 25.6s14.933 17.067 25.6 14.933l46.933-10.667 4.267 46.933c0 10.667 10.667 19.2 21.333 19.2s19.2-8.533 21.333-19.2l6.4-46.933 44.8 10.667c10.667 2.133 21.333-4.267 25.6-14.933s-2.133-21.333-10.667-25.6l-46.933-19.2 23.467-40.533c6.4-8.533 2.133-21.333-6.4-27.733-4.267-2.133-8.533-4.267-12.8-4.267z" />
<glyph unicode="&#xe93a;" glyph-name="service-certification" d="M719.339 734.678h10.579c38.083-4.231 71.934-35.967 78.281-74.050 4.231-27.504-4.231-52.893-21.157-74.050-29.62-33.851-44.43-76.165-44.43-118.479v-2.116c0-31.736 12.694-59.24 33.851-82.512 21.157-21.157 50.777-33.851 82.512-33.851h69.818c29.62 0 55.008-25.388 55.008-55.008v-61.355h-524.694v61.355c0 29.62 25.388 55.008 55.008 55.008h69.818c63.471 0 114.248 50.777 114.248 114.248 0 46.545-14.81 88.86-44.43 118.479-14.81 16.926-23.273 38.083-23.273 59.24 0 23.273 8.463 46.545 25.388 63.471s40.198 29.62 63.471 29.62zM719.339 776.992c-74.050 0-131.174-59.24-131.174-131.174 0-33.851 12.694-65.587 33.851-88.86 21.157-25.388 31.736-57.124 31.736-90.975 0-40.198-31.736-71.934-71.934-71.934h-69.818c-52.893 0-97.322-42.314-97.322-97.322v-67.702c0-19.041 16.926-35.967 35.967-35.967h537.388c19.041 0 35.967 16.926 35.967 35.967v67.702c0 52.893-42.314 97.322-97.322 97.322h-69.818c-40.198 0-71.934 31.736-71.934 71.934v2.116c0 33.851 12.694 65.587 33.851 90.975 23.273 27.504 35.967 65.587 29.62 107.901-8.463 57.124-57.124 103.669-114.248 110.017 0 0-14.81 0-14.81 0zM710.876 131.703v-145.983h-670.678v926.678h524.694c80.397 0 145.983-65.587 145.983-145.983v-12.694c2.116 0 6.347 0 8.463 0h12.694c8.463 0 14.81-4.231 23.273-6.347v16.926c0 105.785-84.628 190.413-190.413 190.413h-564.893v-1013.421h755.306v190.413h-44.43zM924.562 195.174v-40.198h-406.215v40.198h406.215zM930.909 237.488h-418.909c-19.041 0-35.967-16.926-35.967-35.967v-55.008c0-19.041 16.926-35.967 35.967-35.967h418.909c19.041 0 35.967 16.926 35.967 35.967v55.008c0 19.041-16.926 35.967-35.967 35.967z" />
<glyph unicode="&#xe93b;" glyph-name="service-check-and-verify" d="M996.913 80.465l-201.826 201.826c-16.996 19.12-38.241 25.494-59.485 25.494-14.871 0-27.618-4.249-42.49-12.747-19.12 19.12-70.108 67.983-72.232 72.232-2.124 2.124-4.249 2.124-6.373 4.249 125.344 138.091 123.22 352.664-10.622 484.382-67.983 70.108-159.336 104.1-248.564 104.1s-180.581-33.992-248.564-104.1c-138.091-138.091-138.091-361.162 0-497.129 67.983-67.983 159.336-104.1 248.564-104.1 82.855 0 165.71 29.743 231.568 89.228 0-2.124 2.124-4.249 4.249-6.373 4.249-4.249 53.112-53.112 72.232-70.108-19.12-31.867-14.871-74.357 12.747-104.1l201.826-201.826c16.996-16.996 38.241-25.494 59.485-25.494s42.49 8.498 59.485 25.494c31.867 31.867 31.867 84.979 0 118.971zM355.319 297.162c-82.855 0-161.461 31.867-218.822 91.353-121.095 121.095-121.095 316.548 0 437.643 57.361 59.485 135.967 91.353 218.822 91.353s161.461-31.867 218.822-91.353c121.095-121.095 121.095-316.548 0-437.643-59.485-59.485-135.967-91.353-218.822-91.353zM967.17-6.639c-8.498-8.498-16.996-12.747-29.743-12.747s-21.245 4.249-29.743 12.747l-201.826 201.826c-16.996 16.996-16.996 42.49 0 57.361 8.498 8.498 16.996 12.747 29.743 12.747 10.622 0 21.245-4.249 29.743-12.747l201.826-201.826c16.996-16.996 16.996-42.49 0-57.361zM474.29 696.564l-176.332-176.332-70.108 67.983c-8.498 8.498-21.245 8.498-29.743 0s-8.498-21.245 0-29.743l84.979-80.73c4.249-4.249 10.622-6.373 14.871-6.373 6.373 0 10.622 2.124 14.871 4.249l191.203 191.203c8.498 8.498 8.498 21.245 0 29.743s-21.245 8.498-29.743 0z" />
<glyph unicode="&#xe93c;" glyph-name="service-courier-service" d="M230.881 243.841c40.618 0 72.685-32.067 72.685-72.685s-32.067-72.685-72.685-72.685-72.685 32.067-72.685 72.685c0 40.618 32.067 72.685 72.685 72.685zM230.881 286.597c-64.134 0-115.44-51.307-115.44-115.44s51.307-115.44 115.44-115.44 115.44 51.307 115.44 115.44c2.138 64.134-51.307 115.44-115.44 115.44zM688.367 154.054c0 6.413-2.138 10.689-2.138 17.102 0 8.551 2.138 17.102 4.276 25.653h-369.837c2.138-8.551 4.276-17.102 4.276-25.653 0-6.413 0-10.689-2.138-17.102h365.562zM722.572 801.804c-23.516 25.653-55.582 38.48-89.787 38.48h-510.931c-68.409 0-121.854-55.582-121.854-121.854v-442.522c0-68.409 55.582-121.854 121.854-121.854h17.102c0 6.413-2.138 10.689-2.138 17.102 0 8.551 2.138 17.102 4.276 25.653h-19.24c-42.756 0-79.098 36.342-79.098 79.098v442.522c0 42.756 36.342 79.098 79.098 79.098h510.931c21.378 0 42.756-8.551 57.72-25.653l290.739-316.392v-207.365c0-27.791-23.516-51.307-51.307-51.307h-59.858c2.138-8.551 4.276-17.102 4.276-25.653 0-6.413 0-10.689-2.138-17.102h57.72c53.445 0 94.063 42.756 94.063 94.063v224.468l-301.428 329.219zM780.292 243.841c40.618 0 72.685-32.067 72.685-72.685s-32.067-72.685-72.685-72.685c-40.618 0-72.685 32.067-72.685 72.685s32.067 72.685 72.685 72.685zM780.292 286.597c-64.134 0-115.44-51.307-115.44-115.44s51.307-115.44 115.44-115.44 115.44 51.307 115.44 115.44-51.307 115.44-115.44 115.44zM198.814 481.136c-6.413 0-12.827 2.138-17.102 8.551-8.551 8.551-6.413 23.516 2.138 29.929l91.925 79.098-171.023 113.303c-8.551 6.413-10.689 19.24-4.276 29.929s19.24 12.827 29.929 6.413l247.983-164.61 254.397 166.747c10.689 6.413 23.516 4.276 29.929-6.413s4.276-23.516-6.413-29.929l-164.61-109.027 87.649-85.511c8.551-8.551 8.551-21.378 0-29.929s-21.378-8.551-29.929 0l-94.063 91.925-76.96-51.307-64.134 42.756-102.614-87.649c-2.138-2.138-8.551-4.276-12.827-4.276z" />
<glyph unicode="&#xe93d;" glyph-name="service-document-scanning-assistance" d="M900.82-64h-773.356v434.879h42.845v-392.033h687.665v389.891h42.845v-432.736zM902.962 492.987h-42.845v261.356c0 89.975-72.837 162.812-162.812 162.812h-526.996v-424.167h-42.845v467.013h569.841c113.54 0 205.657-92.117 205.657-205.657v-261.356zM984.368 409.439h-944.736c-12.854 0-21.423 8.569-21.423 21.423s8.569 21.423 21.423 21.423h944.736c12.854 0 21.423-8.569 21.423-21.423s-8.569-21.423-21.423-21.423zM740.151 88.1h-452.017c-12.854 0-21.423 8.569-21.423 21.423s8.569 21.423 21.423 21.423h452.017c12.854 0 21.423-8.569 21.423-21.423s-8.569-21.423-21.423-21.423zM427.381 208.067h-139.247c-12.854 0-21.423 8.569-21.423 21.423s8.569 21.423 21.423 21.423h139.247c12.854 0 21.423-8.569 21.423-21.423s-8.569-21.423-21.423-21.423z" />
<glyph unicode="&#xe93e;" glyph-name="service-electronic-visa-waiver-service" d="M515.141 683.583c-125.644 0-230.348-104.703-230.348-234.536s102.609-234.536 230.348-234.536c125.644 0 230.348 104.703 230.348 234.536s-104.703 234.536-230.348 234.536zM701.513 469.988h-73.292c0 62.822-12.564 113.080-25.129 148.679 52.352-31.411 90.045-85.857 98.421-148.679zM546.552 637.513c10.47-20.941 33.505-81.669 35.599-167.526h-136.115c2.094 85.857 25.129 144.491 35.599 167.526 10.47 2.094 20.941 4.188 33.505 4.188 10.47-2.094 20.941-2.094 31.411-4.188zM425.096 616.573c-12.564-33.505-23.035-83.763-23.035-146.585h-73.292c6.282 62.822 43.975 117.268 96.327 146.585zM326.675 426.012h75.387c2.094-46.070 12.564-96.327 29.317-150.773-56.54 29.317-96.327 83.763-104.703 150.773zM483.73 258.487c-23.035 62.822-35.599 119.362-37.693 167.526h134.020c-2.094-50.258-12.564-104.703-35.599-167.526-10.47-2.094-20.941-2.094-29.317-2.094-10.47 0-20.941 0-31.411 2.094zM596.81 275.239c18.847 54.446 27.223 106.798 29.317 150.773h75.387c-8.376-67.010-48.164-123.55-104.703-150.773zM1003.059 426.012c12.564 0 20.941 8.376 20.941 20.941s-8.376 20.941-20.941 20.941h-75.387v127.738h75.387c12.564 0 20.941 8.376 20.941 20.941s-8.376 20.941-20.941 20.941h-75.387v83.763c0 75.387-64.916 138.209-138.209 138.209h-85.857v79.575c0 12.564-8.376 20.941-20.941 20.941s-20.941-8.376-20.941-20.941v-77.481h-127.738v77.481c0 12.564-8.376 20.941-20.941 20.941s-20.941-8.376-20.941-20.941v-77.481h-127.738v77.481c0 12.564-8.376 20.941-20.941 20.941s-20.941-8.376-20.941-20.941v-77.481h-81.669c-75.387 0-138.209-64.916-138.209-138.209v-83.763h-81.669c-12.564 0-20.941-8.376-20.941-20.941s8.376-20.941 20.941-20.941h79.575v-127.738h-79.575c-12.564 0-20.941-8.376-20.941-20.941s8.376-20.941 20.941-20.941h79.575v-127.738h-79.575c-12.564 0-20.941-8.376-20.941-20.941s8.376-20.941 20.941-20.941h79.575v-83.763c0-75.387 64.916-138.209 138.209-138.209h81.669v-79.575c0-12.564 8.376-20.941 20.941-20.941s20.941 8.376 20.941 20.941v77.481h127.738v-77.481c0-12.564 8.376-20.941 20.941-20.941s20.941 8.376 20.941 20.941v77.481h127.738v-77.481c0-12.564 8.376-20.941 20.941-20.941s20.941 8.376 20.941 20.941v77.481h85.857c77.481 0 138.209 62.822 138.209 138.209v83.763h77.481c12.564 0 20.941 8.376 20.941 20.941s-8.376 20.941-20.941 20.941h-75.387v127.738h75.387zM885.791 172.63c0-52.352-41.881-96.327-96.327-96.327h-550.74c-50.258 0-96.327 43.975-96.327 96.327v550.74c0 50.258 43.975 96.327 96.327 96.327h550.74c50.258 0 96.327-43.975 96.327-96.327v-550.74z" />
<glyph unicode="&#xe93f;" glyph-name="service-fast-pass" d="M74.628-42.667c-4.267 0-8.533 0-12.8 0-19.2 4.267-36.267 14.933-46.933 29.867l-6.4 8.533c0 0 0 2.133-2.133 2.133-12.8 23.467-6.4 70.4 21.333 93.867 14.933 12.8 57.6 64 74.667 85.333l98.133 213.333 14.933 130.133c2.133 10.667 12.8 19.2 23.467 19.2 10.667-2.133 19.2-12.8 19.2-23.467l-14.933-134.4c0-2.133 0-4.267-2.133-6.4l-100.267-219.733c0-2.133-2.133-4.267-2.133-4.267-2.133-2.133-59.733-72.533-81.067-91.733-14.933-12.8-17.067-34.133-12.8-40.533l4.267-6.4c6.4-8.533 12.8-12.8 19.2-12.8 8.533-2.133 19.2 2.133 27.733 6.4 27.733 19.2 74.667 72.533 83.2 81.067l121.6 192c6.4 10.667 19.2 12.8 29.867 6.4s12.8-19.2 6.4-29.867l-123.733-192-2.133-2.133c-2.133-2.133-57.6-64-91.733-87.467-12.8-12.8-29.867-17.067-44.8-17.067zM533.295 302.933c-17.067 0-34.133 6.4-42.667 12.8l-104.533 76.8c-8.533 6.4-10.667 21.333-4.267 29.867s21.333 10.667 29.867 4.267l104.533-76.8c2.133 0 17.067-10.667 29.867 0 6.4 6.4 4.267 19.2 2.133 23.467l-160 170.667c-8.533 8.533-8.533 21.333 0 29.867s21.333 8.533 29.867 0l160-170.667c19.2-23.467 21.333-61.867-6.4-83.2-10.667-14.933-25.6-17.067-38.4-17.067zM371.161 768c-53.333 0-96 42.667-96 96s42.667 96 96 96 96-42.667 96-96-42.667-96-96-96zM371.161 917.333c-29.867 0-53.333-23.467-53.333-53.333s23.467-53.333 53.333-53.333 53.333 23.467 53.333 53.333-23.467 53.333-53.333 53.333zM142.895 631.467c2.133 2.133 2.133 4.267 4.267 6.4 10.667 8.533 113.067 93.867 174.933 89.6 34.133 0 59.733-10.667 76.8-32 25.6-29.867 23.467-68.267 23.467-72.533-2.133-10.667-12.8-19.2-23.467-19.2-10.667 2.133-19.2 10.667-19.2 23.467 0 0 2.133 25.6-12.8 40.533-8.533 10.667-25.6 17.067-44.8 17.067-34.133 2.133-104.533-46.933-142.933-78.933l-102.4-174.933c-2.133-4.267-6.4-23.467 6.4-32s14.933-6.4 27.733 4.267l89.6 136.533c2.133 4.267 6.4 6.4 10.667 8.533l61.867 25.6c10.667 4.267 23.467 0 27.733-10.667s0-23.467-10.667-27.733l-55.467-23.467-87.467-132.267c0-2.133-2.133-2.133-2.133-4.267-12.8-8.533-27.733-23.467-51.2-23.467-10.667 0-23.467 4.267-36.267 12.8-32 23.467-27.733 61.867-21.333 83.2zM548.228-64v0c-36.267 0-66.133 17.067-83.2 46.933-147.2 264.533-256 396.8-256 398.933l32 32c4.267-6.4 113.067-138.667 264.533-405.333 12.8-23.467 36.267-25.6 44.8-25.6v0c14.933 0 27.733 6.4 32 14.933 4.267 6.4 2.133 14.933-4.267 25.6-147.2 253.867-209.067 369.067-209.067 369.067-2.133 4.267-2.133 10.667-2.133 14.933 2.133 8.533 4.267 64 6.4 110.933 6.4 110.933 6.4 110.933 6.4 117.333l42.667-14.933-17.067 6.4 17.067 2.133c0-6.4 0-70.4-2.133-113.067-4.267-66.133-6.4-96-6.4-108.8 12.8-25.6 76.8-140.8 204.8-362.667 19.2-32 10.667-57.6 4.267-68.267-17.067-27.733-44.8-40.533-74.667-40.533zM898.095 366.933c-46.933 0-85.333 38.4-85.333 85.333s38.4 85.333 85.333 85.333 85.333-38.4 85.333-85.333-38.4-85.333-85.333-85.333zM898.095 494.933c-23.467 0-42.667-19.2-42.667-42.667s19.2-42.667 42.667-42.667 42.667 19.2 42.667 42.667-19.2 42.667-42.667 42.667zM876.761 384h42.667v-445.867h-42.667v445.867zM610.095 185.6c-42.667 0-83.2 6.4-123.733 17.067-10.667 4.267-17.067 14.933-14.933 25.6 4.267 10.667 14.933 17.067 25.6 14.933 125.867-36.267 268.8-8.533 384 74.667 8.533 6.4 21.333 4.267 27.733-2.133 0 0 38.4-38.4 96-53.333 10.667-2.133 19.2-14.933 14.933-25.6-2.133-10.667-14.933-19.2-25.6-14.933-49.067 12.8-85.333 38.4-102.4 53.333-83.2-59.733-183.467-89.6-281.6-89.6zM872.495 657.067c-6.4 0-10.667 2.133-14.933 6.4-8.533 8.533-8.533 21.333 0 29.867l93.867 93.867h-211.2c-12.8 0-21.333 8.533-21.333 21.333s8.533 21.333 21.333 21.333h211.2l-93.867 93.867c-8.533 8.533-8.533 21.333 0 29.867s21.333 8.533 29.867 0l130.133-130.133c8.533-8.533 8.533-21.333 0-29.867l-130.133-130.133c-4.267-4.267-8.533-6.4-14.933-6.4z" />
<glyph unicode="&#xe940;" glyph-name="service-flexible-hours-for-passport-collection" d="M369.067 661.333c-117.333 0-213.333-96-213.333-213.333s96-213.333 213.333-213.333 213.333 96 213.333 213.333c0 119.467-96 213.333-213.333 213.333zM537.6 467.2h-68.267c-2.133 57.6-12.8 104.533-25.6 134.4 51.2-25.6 87.467-76.8 93.867-134.4zM390.4 616.533c4.267-8.533 34.133-61.867 36.267-149.333h-115.2c2.133 87.467 29.867 140.8 36.267 149.333 6.4 0 14.933 2.133 21.333 2.133s14.933 0 21.333-2.133zM294.4 601.6c-10.667-29.867-23.467-74.667-25.6-134.4h-68.267c6.4 57.6 42.667 108.8 93.867 134.4zM200.533 424.533h70.4c2.133-40.533 10.667-83.2 27.733-132.267-51.2 23.467-89.6 74.667-98.133 132.267zM347.733 279.467v0c-19.2 53.333-29.867 102.4-34.133 145.067h113.067c-4.267-42.667-14.933-91.733-36.267-145.067h2.133c-8.533-2.133-14.933-2.133-23.467-2.133-6.4 0-14.933 0-21.333 2.133zM441.6 294.4c14.933 46.933 23.467 91.733 27.733 130.133h68.267c-8.533-57.6-44.8-106.667-96-130.133zM810.667 960c-51.2 0-98.133-19.2-136.533-49.067-32 29.867-72.533 49.067-119.467 49.067h-533.333c-12.8 0-21.333-8.533-21.333-21.333v-981.333c0-12.8 8.533-21.333 21.333-21.333h533.333c100.267 0 181.333 85.333 181.333 189.867v420.267c23.467-8.533 49.067-12.8 74.667-12.8 117.333 0 213.333 96 213.333 213.333s-96 213.333-213.333 213.333zM693.333 125.867c0-81.067-61.867-147.2-138.667-147.2h-512v938.667h512c36.267 0 66.133-12.8 89.6-36.267-29.867-36.267-46.933-83.2-46.933-134.4 0-74.667 38.4-138.667 96-177.067v-443.733zM810.667 576c-93.867 0-170.667 76.8-170.667 170.667s76.8 170.667 170.667 170.667 170.667-76.8 170.667-170.667-76.8-170.667-170.667-170.667zM878.933 718.933l-53.333 32v85.333c0 12.8-8.533 21.333-21.333 21.333s-21.333-8.533-21.333-21.333v-98.133c0-8.533 4.267-14.933 10.667-19.2l64-38.4c2.133-2.133 6.4-2.133 10.667-2.133 6.4 0 14.933 4.267 17.067 10.667 6.4 10.667 4.267 23.467-6.4 29.867z" />
<glyph unicode="&#xe941;" glyph-name="service-form-filling-assistance" d="M936.885 682.088l-2.138 2.138c-14.965 14.965-34.205 23.516-55.582 23.516-19.24 0-38.48-6.413-53.445-19.24v79.098c0 106.889-85.511 192.401-190.263 192.401h-570.789v-1024h761.052v523.758l111.165 111.165c29.929 32.067 29.929 81.236 0 111.165zM782.965-19.106h-677.678v936.351h530.171c81.236 0 147.507-66.271 147.507-147.507v-123.992l-271.499-271.499c-4.276-4.276-6.413-8.551-6.413-12.827l-8.551-85.511-29.929-29.929c-4.276-4.276-6.413-10.689-6.413-14.965s2.138-10.689 6.413-14.965 8.551-6.413 14.965-6.413c6.413 0 10.689 2.138 14.965 4.276l29.929 29.929 85.511 10.689c4.276 0 8.551 2.138 12.827 6.413l158.196 156.058v-436.109zM906.956 600.852l-305.704-305.704-59.858-6.413 6.413 59.858 305.704 305.704c6.413 6.413 17.102 10.689 25.653 10.689 10.689 0 19.24-4.276 25.653-10.689l2.138-2.138c12.827-12.827 12.827-36.342 0-51.307zM218.589 207.499h141.094c12.827 0 21.378 8.551 21.378 21.378s-8.551 21.378-21.378 21.378h-141.094c-12.827 0-21.378-8.551-21.378-21.378s8.551-21.378 21.378-21.378zM197.211 109.161c0-12.827 8.551-21.378 21.378-21.378h453.211c12.827 0 21.378 8.551 21.378 21.378s-8.551 21.378-21.378 21.378h-453.211c-12.827 0-21.378-8.551-21.378-21.378z" />
<glyph unicode="&#xe942;" glyph-name="service-gold" d="M747.733 917.333l102.4-102.4v-731.733l-102.4-102.4h-469.333l-102.4 102.4v731.733l102.4 102.4h469.333zM764.8 960h-505.6l-128-128v-768l128-128h505.6l128 128v768c0 0-128 128-128 128zM600.533 268.8c-4.267 0-8.533 2.133-12.8 4.267-8.533 6.4-10.667 19.2-6.4 27.733l23.467 40.533-40.533 19.2c-10.667 4.267-14.933 14.933-10.667 25.6s14.933 17.067 25.6 14.933l44.8-10.667 4.267 46.933c0 10.667 10.667 19.2 21.333 19.2s19.2-8.533 21.333-19.2l6.4-46.933 44.8 10.667c10.667 2.133 21.333-4.267 25.6-14.933s-2.133-21.333-10.667-25.6l-42.667-19.2 23.467-38.4c6.4-8.533 4.267-21.333-4.267-27.733s-21.333-6.4-27.733 2.133l-34.133 34.133-32-34.133c-8.533-6.4-12.8-8.533-19.2-8.533zM423.467 268.8c-6.4 0-10.667 2.133-14.933 6.4l-32 34.133-32-34.133c-6.4-8.533-19.2-8.533-27.733-2.133s-10.667 19.2-6.4 27.733l23.467 40.533-42.667 19.2c-10.667 4.267-14.933 14.933-10.667 25.6s14.933 17.067 25.6 14.933l44.8-10.667 6.4 46.933c2.133 10.667 10.667 19.2 21.333 19.2s19.2-8.533 21.333-19.2l6.4-46.933 44.8 10.667c10.667 2.133 21.333-4.267 25.6-14.933s-2.133-21.333-10.667-25.6l-42.667-19.2 23.467-40.533c6.4-8.533 2.133-21.333-6.4-27.733-8.533-2.133-12.8-4.267-17.067-4.267zM560 494.933c-6.4 0-10.667 2.133-14.933 6.4l-32 34.133-32-34.133c-6.4-8.533-19.2-8.533-27.733-2.133s-10.667 19.2-6.4 27.733l23.467 40.533-42.667 19.2c-10.667 4.267-14.933 14.933-12.8 25.6s12.8 17.067 23.467 14.933l46.933-8.533 6.4 44.8c2.133 10.667 10.667 19.2 21.333 19.2 0 0 0 0 0 0 10.667 0 19.2-8.533 21.333-19.2l4.267-44.8 46.933 8.533c10.667 2.133 21.333-4.267 23.467-14.933s-2.133-21.333-12.8-25.6l-42.667-19.2 23.467-40.533c4.267-8.533 2.133-21.333-6.4-27.733-2.133-2.133-6.4-4.267-10.667-4.267z" />
<glyph unicode="&#xe943;" glyph-name="service-group-appointment-booking" d="M476.726-64h-126.129c-10.689 0-19.24 8.551-21.378 19.24l-23.516 205.228c-6.413 49.169-23.516 91.925-55.582 128.267-4.276 4.276-4.276 8.551-4.276 12.827v250.121c0 47.031 17.102 89.787 51.307 121.854 32.067 32.067 76.96 49.169 121.854 47.031 89.787-2.138 164.61-81.236 164.61-175.299v-250.121c0-6.413-2.138-10.689-6.413-14.965-29.929-29.929-47.031-68.409-53.445-113.303l-25.653-211.641c-2.138-10.689-10.689-19.24-21.378-19.24zM369.837-21.244h87.649l23.516 192.401c6.413 51.307 27.791 96.2 59.858 132.543v241.57c0 70.547-55.582 130.405-121.854 132.543-34.205 0-66.271-12.827-91.925-36.342-23.516-23.516-38.48-55.582-38.48-89.787v-241.57c32.067-40.618 53.445-89.787 59.858-143.232l21.378-188.125zM414.731 754.772c-55.582 0-102.614 47.031-102.614 102.614s47.031 102.614 102.614 102.614c55.582 0 102.614-47.031 102.614-102.614s-47.031-102.614-102.614-102.614zM414.731 917.244c-32.067 0-59.858-27.791-59.858-59.858s27.791-59.858 59.858-59.858 59.858 27.791 59.858 59.858-27.791 59.858-59.858 59.858zM138.956 637.194c-47.031 0-85.511 38.48-85.511 85.511s38.48 85.511 85.511 85.511 85.511-38.48 85.511-85.511-38.48-85.511-85.511-85.511zM138.956 765.461c-23.516 0-42.756-19.24-42.756-42.756s19.24-42.756 42.756-42.756 42.756 19.24 42.756 42.756-19.24 42.756-42.756 42.756zM196.676-64h-104.752c-10.689 0-19.24 8.551-21.378 19.24l-21.378 222.33c-4.276 36.342-19.24 66.271-42.756 94.063-4.276 4.276-6.413 8.551-6.413 14.965v166.747c0 81.236 61.996 147.507 141.094 149.645 12.827 0 21.378-8.551 21.378-21.378s-8.551-21.378-21.378-21.378c-55.582-2.138-98.338-49.169-98.338-106.889v-158.196c27.791-32.067 44.894-70.547 49.169-113.303l19.24-203.090h85.511c12.827 0 21.378-8.551 21.378-21.378s-8.551-21.378-21.378-21.378zM810.221 528.167c-117.578 0-213.779 96.2-213.779 213.779s96.2 213.779 213.779 213.779 213.779-96.2 213.779-213.779-96.2-213.779-213.779-213.779zM810.221 912.969c-94.063 0-171.023-76.96-171.023-171.023s76.96-171.023 171.023-171.023 171.023 76.96 171.023 171.023-76.96 171.023-171.023 171.023zM867.942 675.674c-4.276 0-8.551 0-10.689 4.276l-61.996 38.48c-6.413 4.276-10.689 10.689-10.689 17.102v98.338c0 12.827 8.551 21.378 21.378 21.378s21.378-8.551 21.378-21.378v-85.511l51.307-32.067c10.689-6.413 12.827-19.24 6.413-29.929-2.138-6.413-10.689-10.689-17.102-10.689z" />
<glyph unicode="&#xe944;" glyph-name="service-prime-time-appointment" d="M668.474 229.788c-4.258 0-8.516 2.129-12.773 4.258l-191.601 151.152c-4.258 4.258-8.516 10.644-8.516 17.031v295.917c0 12.773 8.516 21.289 21.289 21.289s21.289-8.516 21.289-21.289v-285.272l183.085-144.765c8.516-6.387 10.644-21.289 4.258-29.805-4.258-6.387-10.644-8.516-17.031-8.516zM881.364 544.865c14.902-42.578 23.418-89.414 23.418-136.249 0-236.308-193.73-430.037-430.037-430.037s-430.037 193.73-430.037 430.037c0 236.308 191.601 430.037 430.037 430.037 46.836 0 89.414-8.516 131.992-21.289 6.387 12.773 12.773 25.547 21.289 38.32-48.965 17.031-100.058 25.547-153.281 25.547-261.854 0-472.615-210.761-472.615-472.615s210.761-472.615 472.615-472.615 472.615 210.761 472.615 472.615c0 55.351-10.644 108.574-27.676 159.667-10.644-8.516-23.418-17.031-38.32-23.418zM794.079 917.422c102.187 0 185.214-83.027 185.214-185.214s-83.027-185.214-185.214-185.214-185.214 83.027-185.214 185.214 83.027 185.214 185.214 185.214zM794.079 960c-125.605 0-227.792-102.187-227.792-227.792s102.187-227.792 227.792-227.792 227.792 102.187 227.792 227.792-102.187 227.792-227.792 227.792zM764.274 655.568c-4.258 0-10.644 2.129-14.902 6.387l-51.094 46.836c-8.516 8.516-8.516 21.289-2.129 29.805 8.516 8.516 21.289 8.516 29.805 2.129l36.191-34.062 97.929 93.672c8.516 8.516 21.289 8.516 29.805 0s8.516-21.289 0-29.805l-112.832-108.574c-2.129-4.258-8.516-6.387-12.773-6.387zM329.979 238.304c0-11.758-9.531-21.289-21.289-21.289s-21.289 9.531-21.289 21.289c0 11.758 9.531 21.289 21.289 21.289s21.289-9.531 21.289-21.289zM274.628 182.952c0-11.758-9.531-21.289-21.289-21.289s-21.289 9.531-21.289 21.289c0 11.758 9.531 21.289 21.289 21.289s21.289-9.531 21.289-21.289zM385.331 293.655c0-11.758-9.531-21.289-21.289-21.289s-21.289 9.531-21.289 21.289c0 11.758 9.531 21.289 21.289 21.289s21.289-9.531 21.289-21.289zM440.682 349.006c0-11.758-9.531-21.289-21.289-21.289s-21.289 9.531-21.289 21.289c0 11.758 9.531 21.289 21.289 21.289s21.289-9.531 21.289-21.289z" />
<glyph unicode="&#xe945;" glyph-name="service-premium-lounge" d="M784.568 69.612h-545.136c-87.649 0-160.334 61.996-175.299 145.37l-64.134 361.286 72.685 12.827c38.48 6.413 76.96 0 109.027-23.516 32.067-21.378 53.445-55.582 59.858-94.063l32.067-177.436h474.589l32.067 177.436c14.965 81.236 89.787 132.543 171.023 117.578l72.685-12.827-64.134-361.286c-14.965-83.374-87.649-145.37-175.299-145.37zM51.307 542.063l55.582-318.53c10.689-64.134 66.271-111.165 132.543-111.165h545.136c66.271 0 121.854 47.031 132.543 111.165l55.582 318.53-29.929 4.276c-57.72 10.689-111.165-25.653-121.854-83.374l-36.342-211.641h-545.136l-36.342 211.641c-4.276 27.791-21.378 51.307-42.756 66.271-23.516 14.965-49.169 21.378-76.96 17.102l-32.067-4.276zM758.914-41.553h-42.756v109.027h42.756v-109.027zM305.704-41.553h-42.756v109.027h42.756v-109.027zM198.814 456.551l-44.894 243.708c-10.689 59.858 4.276 119.716 42.756 164.61 38.48 47.031 96.2 72.685 156.058 72.685h312.117c59.858 0 117.578-27.791 156.058-72.685 38.48-47.031 53.445-106.889 42.756-166.747l-44.894-243.708-42.756 8.551 44.894 243.708c8.551 47.031-2.138 94.063-34.205 130.405-29.929 36.342-74.823 57.72-123.992 57.72h-309.979c-47.031 0-91.925-21.378-123.992-57.72-29.929-36.342-42.756-83.374-34.205-130.405l44.894-243.708-40.618-6.413z" />
<glyph unicode="&#xe946;" glyph-name="service-premium-courier-service" d="M245.333 176c0 10.667 2.133 19.2 4.267 27.733-10.667 0-19.2-10.667-19.2-21.333s6.4-17.067 17.067-21.333c-2.133 6.4-2.133 10.667-2.133 14.933zM326.4 237.867c34.133 0 59.733-27.733 59.733-59.733 0-34.133-27.733-59.733-59.733-59.733-34.133 0-59.733 27.733-59.733 59.733s25.6 59.733 59.733 59.733zM326.4 280.533c-57.6 0-102.4-46.933-102.4-102.4 0-57.6 46.933-102.4 102.4-102.4 57.6 0 102.4 46.933 102.4 102.4s-44.8 102.4-102.4 102.4zM768 781.867c-23.467 23.467-57.6 38.4-89.6 38.4h-426.667c-12.8 0-21.333-8.533-21.333-21.333s8.533-21.333 21.333-21.333h426.667c21.333 0 42.667-10.667 59.733-25.6l243.2-264.533v-226.133c0-32-25.6-57.6-57.6-57.6h-34.133c2.133-8.533 4.267-17.067 4.267-27.733 0-4.267 0-10.667-2.133-14.933h32c55.467 0 100.267 44.8 100.267 100.267v243.2l-256 277.333zM733.867 161.067c0 4.267-2.133 10.667-2.133 14.933 0 10.667 2.133 19.2 4.267 27.733h-332.8c2.133-8.533 4.267-17.067 4.267-27.733 0-4.267 0-10.667-2.133-14.933h328.533zM812.8 237.867c34.133 0 59.733-27.733 59.733-59.733 0-34.133-27.733-59.733-59.733-59.733s-59.733 27.733-59.733 59.733c-2.133 32 25.6 59.733 59.733 59.733zM812.8 280.533c-57.6 0-102.4-46.933-102.4-102.4 0-57.6 46.933-102.4 102.4-102.4 57.6 0 102.4 46.933 102.4 102.4s-46.933 102.4-102.4 102.4zM294.4 357.333h-119.467c-12.8 0-21.333 8.533-21.333 21.333s8.533 21.333 21.333 21.333h119.467c12.8 0 21.333-8.533 21.333-21.333s-8.533-21.333-21.333-21.333zM294.4 500.267h-206.933c-12.8 0-21.333 8.533-21.333 21.333s8.533 21.333 21.333 21.333h206.933c12.8 0 21.333-8.533 21.333-21.333s-8.533-21.333-21.333-21.333zM294.4 641.067h-273.067c-12.8 0-21.333 8.533-21.333 21.333s8.533 21.333 21.333 21.333h273.067c12.8 0 21.333-8.533 21.333-21.333s-8.533-21.333-21.333-21.333z" />
<glyph unicode="&#xe947;" glyph-name="service-platinum-lounge" d="M208.434 209.637h-53.445c-12.827 0-21.378 8.551-21.378 21.378s8.551 21.378 21.378 21.378h53.445c12.827 0 21.378-8.551 21.378-21.378s-8.551-21.378-21.378-21.378zM208.434 402.038h-123.992c-12.827 0-21.378 8.551-21.378 21.378s8.551 21.378 21.378 21.378h123.992c12.827 0 21.378-8.551 21.378-21.378s-8.551-21.378-21.378-21.378zM208.434 594.438h-185.987c-12.827 0-21.378 8.551-21.378 21.378s8.551 21.378 21.378 21.378h185.987c12.827 0 21.378-8.551 21.378-21.378s-8.551-21.378-21.378-21.378zM832.668 917.244c81.236 0 147.507-66.271 147.507-147.507v-788.843h-656.301v938.488l508.793-2.138zM832.668 960h-551.549v-1024h741.812v833.737c0 104.752-85.511 190.263-190.263 190.263zM854.046 87.783h-404.042c-12.827 0-21.378 8.551-21.378 21.378s8.551 21.378 21.378 21.378h404.042c12.827 0 21.378-8.551 21.378-21.378s-8.551-21.378-21.378-21.378zM854.046 209.637h-404.042c-12.827 0-21.378 8.551-21.378 21.378s8.551 21.378 21.378 21.378h404.042c12.827 0 21.378-8.551 21.378-21.378s-8.551-21.378-21.378-21.378zM567.582 408.451c-4.276 0-8.551 2.138-12.827 4.276-8.551 6.413-10.689 19.24-6.413 27.791l49.169 85.511-87.649 40.618c-10.689 4.276-14.965 14.965-10.689 25.653s14.965 17.102 25.653 14.965l94.063-21.378 10.689 96.2c2.138 10.689 10.689 19.24 21.378 19.24s19.24-8.551 21.378-19.24l12.827-96.2 94.063 21.378c10.689 2.138 21.378-4.276 25.653-14.965s-2.138-21.378-10.689-25.653l-89.787-40.618 49.169-85.511c6.413-8.551 2.138-21.378-6.413-27.791s-21.378-4.276-27.791 2.138l-66.271 72.685-66.271-72.685c-8.551-4.276-12.827-6.413-19.24-6.413zM648.818 540.994v0c0 0 0 0 0 0s0 0 0 0c2.138 0 2.138 2.138 2.138 2.138s0 0 0 0c-2.138 0-2.138 0-2.138-2.138 0 2.138 0 2.138 0 0-2.138 0-2.138 0 0 0 0 0 0 0 0 0z" />
<glyph unicode="&#xe948;" glyph-name="service-photocopying" d="M473.6 936.533c0-11.782-9.551-21.333-21.333-21.333s-21.333 9.551-21.333 21.333c0 11.782 9.551 21.333 21.333 21.333s21.333-9.551 21.333-21.333zM302.933 164.267c0-11.782-9.551-21.333-21.333-21.333s-21.333 9.551-21.333 21.333c0 11.782 9.551 21.333 21.333 21.333s21.333-9.551 21.333-21.333zM215.467 164.267c0-11.782-9.551-21.333-21.333-21.333s-21.333 9.551-21.333 21.333c0 11.782 9.551 21.333 21.333 21.333s21.333-9.551 21.333-21.333zM130.133 164.267c0-11.782-9.551-21.333-21.333-21.333s-21.333 9.551-21.333 21.333c0 11.782 9.551 21.333 21.333 21.333s21.333-9.551 21.333-21.333zM386.133 936.533c0-11.782-9.551-21.333-21.333-21.333s-21.333 9.551-21.333 21.333c0 11.782 9.551 21.333 21.333 21.333s21.333-9.551 21.333-21.333zM300.8 936.533c0-11.782-9.551-21.333-21.333-21.333s-21.333 9.551-21.333 21.333c0 11.782 9.551 21.333 21.333 21.333s21.333-9.551 21.333-21.333zM556.8 921.6c0-11.782-9.551-21.333-21.333-21.333s-21.333 9.551-21.333 21.333c0 11.782 9.551 21.333 21.333 21.333s21.333-9.551 21.333-21.333zM608 855.467c0-11.782-9.551-21.333-21.333-21.333s-21.333 9.551-21.333 21.333c0 11.782 9.551 21.333 21.333 21.333s21.333-9.551 21.333-21.333zM215.467 936.533c0-11.782-9.551-21.333-21.333-21.333s-21.333 9.551-21.333 21.333c0 11.782 9.551 21.333 21.333 21.333s21.333-9.551 21.333-21.333zM130.133 936.533c0-11.782-9.551-21.333-21.333-21.333s-21.333 9.551-21.333 21.333c0 11.782 9.551 21.333 21.333 21.333s21.333-9.551 21.333-21.333zM44.8 164.267c0-11.782-9.551-21.333-21.333-21.333s-21.333 9.551-21.333 21.333c0 11.782 9.551 21.333 21.333 21.333s21.333-9.551 21.333-21.333zM42.667 251.733c0-11.782-9.551-21.333-21.333-21.333s-21.333 9.551-21.333 21.333c0 11.782 9.551 21.333 21.333 21.333s21.333-9.551 21.333-21.333zM42.667 337.067c0-11.782-9.551-21.333-21.333-21.333s-21.333 9.551-21.333 21.333c0 11.782 9.551 21.333 21.333 21.333s21.333-9.551 21.333-21.333zM42.667 422.4c0-11.782-9.551-21.333-21.333-21.333s-21.333 9.551-21.333 21.333c0 11.782 9.551 21.333 21.333 21.333s21.333-9.551 21.333-21.333zM42.667 507.733c0-11.782-9.551-21.333-21.333-21.333s-21.333 9.551-21.333 21.333c0 11.782 9.551 21.333 21.333 21.333s21.333-9.551 21.333-21.333zM42.667 595.2c0-11.782-9.551-21.333-21.333-21.333s-21.333 9.551-21.333 21.333c0 11.782 9.551 21.333 21.333 21.333s21.333-9.551 21.333-21.333zM42.667 680.533c0-11.782-9.551-21.333-21.333-21.333s-21.333 9.551-21.333 21.333c0 11.782 9.551 21.333 21.333 21.333s21.333-9.551 21.333-21.333zM42.667 768c0-11.782-9.551-21.333-21.333-21.333s-21.333 9.551-21.333 21.333c0 11.782 9.551 21.333 21.333 21.333s21.333-9.551 21.333-21.333zM42.667 853.333c0-11.782-9.551-21.333-21.333-21.333s-21.333 9.551-21.333 21.333c0 11.782 9.551 21.333 21.333 21.333s21.333-9.551 21.333-21.333zM42.667 938.667c0-11.782-9.551-21.333-21.333-21.333s-21.333 9.551-21.333 21.333c0 11.782 9.551 21.333 21.333 21.333s21.333-9.551 21.333-21.333zM106.667 360.533h115.2c12.8 0 21.333 8.533 21.333 21.333s-8.533 21.333-21.333 21.333h-115.2c-12.8 0-21.333-8.533-21.333-21.333s8.533-21.333 21.333-21.333zM354.133 302.933h-247.467c-12.8 0-21.333-8.533-21.333-21.333s8.533-21.333 21.333-21.333h247.467v42.667zM866.133 729.6c61.867 0 113.067-51.2 113.067-113.067v-637.867h-537.6v750.933h424.533zM866.133 772.267h-467.2v-836.267h625.067v680.533c0 85.333-70.4 155.733-157.867 155.733zM896 55.467h-369.067c-12.8 0-21.333 8.533-21.333 21.333s8.533 21.333 21.333 21.333h369.067c12.8 0 21.333-8.533 21.333-21.333s-8.533-21.333-21.333-21.333zM642.133 155.733h-115.2c-12.8 0-21.333 8.533-21.333 21.333s8.533 21.333 21.333 21.333h115.2c12.8 0 21.333-8.533 21.333-21.333s-8.533-21.333-21.333-21.333z" />
<glyph unicode="&#xe949;" glyph-name="service-photobooth" d="M934.045 911.696h-541.871c-49.261 0-89.955-40.694-89.955-89.955v-74.962l-252.73-124.223c-42.836-21.418-62.112-74.962-40.694-117.798l229.171-471.192c14.992-32.127 47.119-49.261 79.246-49.261 12.851 0 25.701 2.142 38.552 8.567l409.080 199.186h169.201c49.261 0 89.955 40.694 89.955 89.955v539.729c0 49.261-40.694 89.955-89.955 89.955zM336.488 31.424c-6.425-2.142-12.851-4.284-19.276-4.284-17.134 0-32.127 10.709-40.694 25.701l-229.171 471.192c-4.284 10.709-6.425 23.56-2.142 34.268s12.851 21.418 23.56 25.701l233.454 113.514v-415.505c0-49.261 40.694-89.955 89.955-89.955h274.148l-329.834-160.634zM488.555 234.893c0 47.119 19.276 89.955 53.545 124.223s79.246 51.403 126.365 49.261c87.813-4.284 162.775-79.246 169.201-173.484h-349.11zM981.164 282.012c0-25.701-21.418-47.119-47.119-47.119h-51.403c-6.425 115.656-98.522 212.036-212.036 216.32-59.97 2.142-115.656-19.276-158.492-59.97-42.836-42.836-66.395-96.38-66.395-156.35h-53.545c-25.701 0-47.119 21.418-47.119 47.119v539.729c0 25.701 21.418 47.119 47.119 47.119h541.871c25.701 0 47.119-21.418 47.119-47.119v-539.729zM662.039 768.196c-70.679 0-128.507-57.828-128.507-128.507s57.828-128.507 128.507-128.507 128.507 57.828 128.507 128.507-57.828 128.507-128.507 128.507zM662.039 554.018c-47.119 0-85.671 38.552-85.671 85.671s38.552 85.671 85.671 85.671 85.671-38.552 85.671-85.671-38.552-85.671-85.671-85.671z" />
<glyph unicode="&#xe94a;" glyph-name="service-personal-vfs-global-staff-support" d="M266.155 754.772c55.582 0 102.614 47.031 102.614 102.614s-47.031 102.614-102.614 102.614c-55.582 0-102.614-47.031-102.614-102.614s47.031-102.614 102.614-102.614zM266.155 917.244c32.067 0 59.858-27.791 59.858-59.858s-27.791-59.858-59.858-59.858-59.858 27.791-59.858 59.858 27.791 59.858 59.858 59.858zM747.157 754.772c55.582 0 102.614 47.031 102.614 102.614s-47.031 102.614-102.614 102.614c-55.582 0-102.614-47.031-102.614-102.614s47.031-102.614 102.614-102.614zM747.157 917.244c32.067 0 59.858-27.791 59.858-59.858s-27.791-59.858-59.858-59.858-59.858 27.791-59.858 59.858 27.791 59.858 59.858 59.858zM1001.553 459.758h-83.374v85.511c0 94.063-74.823 173.161-164.61 175.299-44.894 2.138-89.787-14.965-121.854-47.031-34.205-32.067-51.307-74.823-51.307-121.854v-91.925h-117.578v61.996c0 106.889-83.374 196.676-185.987 198.814-51.307 2.138-100.476-14.965-138.956-51.307s-59.858-85.511-59.858-138.956v-70.547h-55.582c-12.827 0-21.378-8.551-21.378-21.378s8.551-21.378 21.378-21.378h557.962v-115.44c0-4.276 0-8.551 4.276-12.827 32.067-36.342 49.169-79.098 55.582-128.267l23.516-205.228c2.138-10.689 10.689-19.24 21.378-19.24h126.129c10.689 0 19.24 8.551 21.378 19.24l25.653 211.641c6.413 44.894 23.516 83.374 53.445 113.303 4.276 4.276 6.413 8.551 6.413 14.965v121.854h83.374c12.827 0 21.378 8.551 21.378 21.378s-8.551 21.378-21.378 21.378zM120.785 530.305c0 40.618 14.965 79.098 44.894 106.889 27.791 27.791 66.271 42.756 106.889 40.618 79.098-2.138 143.232-72.685 143.232-156.058v-61.996h-295.015v70.547zM875.424 303.699c-32.067-36.342-53.445-81.236-59.858-132.543l-23.516-192.401h-87.649l-21.378 188.125c-6.413 53.445-27.791 102.614-59.858 143.232v241.57c0 34.205 14.965 66.271 38.48 89.787 25.653 23.516 57.72 36.342 91.925 36.342 66.271-2.138 121.854-61.996 121.854-132.543v-241.57zM317.461 637.194c-6.413 4.276-14.965 4.276-21.378 0l-49.169-34.205v14.965c0 12.827-8.551 21.378-21.378 21.378s-21.378-8.551-21.378-21.378v-55.582c0-8.551 4.276-14.965 10.689-19.24 4.276-2.138 6.413-2.138 10.689-2.138s8.551 2.138 10.689 2.138l49.169 34.205v-14.965c0-12.827 8.551-21.378 21.378-21.378s21.378 8.551 21.378 21.378v55.582c0 8.551-4.276 14.965-10.689 19.24z" />
<glyph unicode="&#xe94b;" glyph-name="service-personal-chauffeur-service" d="M853.688 753.497c55.351 0 102.187 46.836 102.187 102.187s-46.836 102.187-102.187 102.187-102.187-46.836-102.187-102.187c0-55.351 46.836-102.187 102.187-102.187zM853.688 915.293c31.933 0 59.609-27.676 59.609-59.609s-27.676-59.609-59.609-59.609-59.609 27.676-59.609 59.609 27.676 59.609 59.609 59.609zM860.075 719.435c-29.805 2.129-57.48-4.258-83.027-19.16-27.676 25.547-61.738 48.965-112.832 48.965h-344.882c-104.316 0-153.281-100.058-163.925-123.476-2.129-2.129-2.129-4.258-4.258-6.387-10.644-25.547-38.32-106.445-59.609-172.441h-70.254c-12.773 0-21.289-8.516-21.289-21.289s8.516-21.289 21.289-21.289h55.351c-4.258-12.773-8.516-25.547-10.644-34.062v-2.129c-10.644-53.222-6.387-291.659-4.258-338.495-2.129-51.094 38.32-91.543 89.414-91.543h85.156c8.516 0 17.031 4.258 19.16 12.773l23.418 53.222c2.129 6.387 8.516 10.644 17.031 10.644h389.588c6.387 0 12.773-4.258 17.031-10.644l23.418-53.222c4.258-8.516 10.644-12.773 19.16-12.773h172.441c10.644 0 19.16 8.516 21.289 19.16l25.547 210.761c6.387 44.707 23.418 83.027 53.222 112.832 4.258 4.258 6.387 8.516 6.387 14.902v249.081c0 93.672-74.511 172.441-163.925 174.57zM742.985 21.156c-8.516 21.289-31.933 36.191-55.351 36.191h-391.717c-25.547 0-46.836-12.773-55.351-36.191l-19.16-40.449h-70.254c-25.547 0-48.965 23.418-48.965 48.965-2.129 136.249-2.129 291.659 4.258 329.979 19.16 55.351 76.64 225.663 85.156 242.694v2.129c2.129 2.129 2.129 4.258 4.258 6.387 6.387 17.031 46.836 95.8 123.476 95.8h344.882c34.062 0 57.48-12.773 78.769-29.805-2.129-2.129-2.129-2.129-4.258-4.258-34.062-31.933-51.094-74.511-51.094-121.347v-249.081c0-4.258 0-8.516 4.258-12.773 31.933-36.191 48.965-78.769 55.351-127.734l21.289-180.956h-8.516l-17.031 40.449zM981.422 304.299c-31.933-36.191-53.222-80.898-59.609-131.992l-23.418-191.601h-87.285l-21.289 187.343c-6.387 53.222-27.676 102.187-59.609 142.636v240.565c0 34.062 14.902 65.996 38.32 89.414 25.547 23.418 57.48 36.191 91.543 36.191 65.996-2.129 121.347-61.738 121.347-131.992v-240.565zM615.252 293.655h-223.534c-19.16 0-36.191-8.516-48.965-23.418s-17.031-34.062-12.773-55.351l6.387-25.547c2.129-10.644 10.644-17.031 21.289-17.031h291.659c10.644 0 19.16 6.387 19.16 17.031l6.387 23.418c6.387 19.16 2.129 40.449-8.516 55.351s-29.805 25.547-51.094 25.547zM634.412 223.401l-2.129-8.516h-257.597l-2.129 10.644c-2.129 6.387 0 14.902 4.258 19.16 2.129 4.258 8.516 6.387 14.902 6.387h223.534c6.387 0 12.773-2.129 17.031-8.516 2.129-4.258 4.258-10.644 2.129-19.16z" />
<glyph unicode="&#xe94c;" glyph-name="service-online-payment-assistance" d="M684.756-9.375c-53.239 0-97.96 44.721-97.96 97.96s44.721 97.96 97.96 97.96c53.239 0 97.96-44.721 97.96-97.96s-44.721-97.96-97.96-97.96zM684.756 143.954c-29.814 0-55.369-25.555-55.369-55.369s25.555-55.369 55.369-55.369 55.369 25.555 55.369 55.369-25.555 55.369-55.369 55.369zM1016.969 512.37l-163.977 347.12c-8.518 19.166-23.425 34.073-42.591 40.462-19.166 8.518-42.591 6.389-61.758-2.13l-702.758-332.213c-19.166-8.518-34.073-23.425-40.462-42.591-8.518-19.166-6.389-42.591 2.13-61.758l163.977-344.99c8.518-19.166 23.425-34.073 42.591-40.462 8.518-4.259 19.166-4.259 27.684-4.259 10.648 0 23.425 2.13 34.073 6.389l421.655 198.050c-6.389 12.777-10.648 25.555-14.907 40.462l-425.914-200.18c-8.518-4.259-19.166-4.259-27.684 0-6.389 2.13-12.777 6.389-19.166 19.166l-163.977 344.99c-4.259 8.518-4.259 19.166 0 27.684 2.13 6.389 6.389 12.777 19.166 19.166l702.758 332.213c4.259 2.13 10.648 4.259 14.907 4.259s8.518 0 12.777-2.13c6.389-4.259 14.907-8.518 19.166-19.166l163.977-347.12c8.518-19.166 0-38.332-17.037-48.98l-8.518-4.259c8.518-10.648 17.037-23.425 21.296-36.203l6.389 2.13h2.13c36.203 21.296 51.11 63.887 34.073 104.349zM505.872 314.32c-93.701 0-170.366 76.665-170.366 170.366s76.665 170.366 170.366 170.366 170.366-76.665 170.366-170.366-76.665-170.366-170.366-170.366zM505.872 612.46c-70.276 0-127.774-57.498-127.774-127.774s57.498-127.774 127.774-127.774 127.774 57.498 127.774 127.774-57.498 127.774-127.774 127.774zM831.696 237.656c-61.758 0-110.738 48.98-110.738 110.738s48.98 110.738 110.738 110.738 110.738-48.98 110.738-110.738-48.98-110.738-110.738-110.738zM831.696 416.539c-38.332 0-68.146-29.814-68.146-68.146s29.814-68.146 68.146-68.146 68.146 29.814 68.146 68.146-29.814 68.146-68.146 68.146z" />
<glyph unicode="&#xe94d;" glyph-name="service-on-demand-mobile-visa" d="M1024 581.612l-513.069 367.699-510.931-367.699 25.653-34.205 94.063 68.409v-564.376c0-57.72 47.031-104.752 104.752-104.752h577.202c57.72 0 104.752 47.031 104.752 104.752v562.238l91.925-66.271 25.653 34.205zM863.666 51.441c0-34.205-27.791-61.996-61.996-61.996h-577.202c-34.205 0-61.996 27.791-61.996 61.996v594.305l348.459 252.259 352.735-254.397v-592.167zM275.775 359.282c0-130.405 104.752-235.157 235.157-235.157s235.157 104.752 235.157 235.157c0 130.405-104.752 235.157-235.157 235.157s-235.157-104.752-235.157-235.157zM542.998 549.545l-6.413-4.276c0-2.138 38.48-64.134 40.618-168.885h-130.405c2.138 104.752 40.618 168.885 40.618 168.885l-6.413 4.276c10.689 2.138 19.24 2.138 29.929 2.138s21.378-2.138 32.067-2.138zM431.833 534.58c-12.827-32.067-29.929-85.511-29.929-156.058h-83.374c8.551 70.547 53.445 128.267 113.303 156.058zM320.668 335.766h83.374c4.276-47.031 12.827-98.338 34.205-153.921-64.134 25.653-109.027 83.374-117.578 153.921zM483.14 169.019l4.276 2.138c-25.653 59.858-36.342 115.44-40.618 164.61h130.405c-4.276-49.169-14.965-102.614-40.618-164.61l4.276-2.138c-10.689-2.138-19.24-2.138-29.929-2.138-8.551 0-19.24 0-27.791 2.138zM585.754 181.846c21.378 57.72 29.929 106.889 34.205 153.921h81.236c-8.551-70.547-53.445-128.267-115.44-153.921zM703.332 378.522h-83.374c-2.138 70.547-17.102 123.992-29.929 156.058 59.858-27.791 104.752-85.511 113.303-156.058z" />
<glyph unicode="&#xe94e;" glyph-name="service-keep-my-passport-when-applying" d="M370.116 661.333c-117.333 0-213.333-96-213.333-213.333s96-213.333 213.333-213.333 213.333 96 213.333 213.333c-2.133 119.467-96 213.333-213.333 213.333zM538.649 467.2h-70.4c-2.133 59.733-14.933 104.533-25.6 134.4 53.333-23.467 89.6-74.667 96-134.4zM389.316 616.533c6.4-8.533 34.133-61.867 36.267-149.333h-113.067c2.133 85.333 29.867 140.8 36.267 149.333 6.4 0 14.933 2.133 21.333 2.133s12.8 0 19.2-2.133zM295.449 601.6c-10.667-29.867-23.467-74.667-25.6-134.4h-68.267c6.4 57.6 42.667 108.8 93.867 134.4zM201.582 424.533h68.267c2.133-40.533 10.667-83.2 25.6-130.133-49.067 25.6-85.333 72.533-93.867 130.133zM346.649 279.467c-21.333 51.2-29.867 102.4-34.133 142.933h113.067c-4.267-42.667-14.933-89.6-34.133-142.933-6.4 0-12.8-2.133-21.333-2.133s-14.933 0-23.467 2.133zM440.516 292.267c14.933 49.067 23.467 91.733 27.733 132.267h70.4c-8.533-57.6-44.8-106.667-98.133-132.267zM894.916 648.533l-157.867 61.867c0 0 0 0 0 0v59.733c0 104.533-81.067 189.867-181.333 189.867h-533.333c-12.8 0-21.333-8.533-21.333-21.333v-981.333c0-12.8 8.533-21.333 21.333-21.333h533.333c100.267 0 181.333 85.333 181.333 189.867v113.067h81.067c113.067 0 206.933 93.867 204.8 206.933v25.6c-2.133 115.2-121.6 174.933-128 177.067zM555.716-21.333h-512v938.667h512c76.8 0 138.667-66.133 138.667-147.2v-44.8l-142.933 55.467c-6.4 2.133-10.667 2.133-17.067 0-4.267-2.133-8.533-6.4-10.667-12.8l-12.8-44.8c0-2.133 0-2.133 0-4.267-4.267-32 21.333-51.2 36.267-57.6l147.2-91.733v-443.733c0-81.067-61.867-147.2-138.667-147.2zM982.382 445.867c0-89.6-74.667-164.267-164.267-164.267h-81.067v260.267l6.4-4.267c10.667-6.4 23.467-4.267 29.867 6.4s4.267 23.467-6.4 29.867l-196.267 123.733c-2.133 0-2.133 2.133-4.267 2.133 0 0-12.8 4.267-12.8 12.8l6.4 21.333 320-123.733c0 0 100.267-49.067 102.4-138.667v-25.6z" />
<glyph unicode="&#xe94f;" glyph-name="service-internet-kiosk" d="M558.933 694.4c-4.267 0-8.533 0-10.667 2.133-8.533 4.267-21.333 12.8-38.4 12.8-14.933 0-25.6-6.4-36.267-12.8s-23.467-2.133-29.867 6.4c-6.4 10.667-2.133 23.467 6.4 29.867 10.667 6.4 29.867 17.067 57.6 17.067 19.2 0 40.533-6.4 59.733-17.067 10.667-6.4 12.8-19.2 6.4-29.867 0-4.267-8.533-8.533-14.933-8.533zM401.067 777.6c-6.4 0-14.933 4.267-17.067 10.667-6.4 10.667-4.267 23.467 6.4 29.867 19.2 12.8 61.867 40.533 119.467 40.533 42.667 0 85.333-12.8 125.867-40.533 10.667-6.4 12.8-19.2 6.4-29.867s-19.2-12.8-29.867-6.4c-32 21.333-66.133 32-100.267 32-40.533 0-70.4-14.933-98.133-32-4.267-2.133-8.533-4.267-12.8-4.267zM337.067 858.667c-6.4 0-14.933 4.267-19.2 10.667-6.4 10.667-2.133 23.467 8.533 29.867l4.267 2.133c36.267 21.333 98.133 57.6 177.067 57.6 66.133 0 128-19.2 189.867-61.867 10.667-6.4 12.8-19.2 6.4-29.867s-19.2-12.8-29.867-6.4c-36.267 23.467-91.733 53.333-168.533 53.333-68.267 0-119.467-32-153.6-51.2l-4.267-2.133c-4.267-2.133-6.4-2.133-10.667-2.133zM981.333 58.667v-19.2c0-34.133-27.733-59.733-59.733-59.733h-819.2c-34.133 0-59.733 27.733-59.733 59.733v19.2h938.667zM1024 101.333h-1024v-61.867c0-57.6 46.933-102.4 102.4-102.4h819.2c57.6 0 102.4 46.933 102.4 102.4v61.867zM851.2 572.8c21.333 0 38.4-17.067 38.4-38.4v-433.067h-755.2v433.067c0 21.333 17.067 38.4 38.4 38.4h678.4zM851.2 615.467h-678.4c-44.8 0-81.067-36.267-81.067-81.067v-475.733h840.533v475.733c0 44.8-36.267 81.067-81.067 81.067z" />
<glyph unicode="&#xe950;" glyph-name="service-home-to-home-service" d="M801.67-52.242h-577.203c-57.72 0-104.752 47.031-104.752 104.752v596.443h42.756v-596.443c0-34.205 27.791-61.996 61.996-61.996h577.203c34.205 0 61.996 27.791 61.996 61.996v594.305h42.756v-594.305c0-57.72-47.031-104.752-104.752-104.752zM25.653 546.338l-25.653 34.205 513.069 367.699 510.931-367.699-25.653-34.205-485.278 350.597zM510.931 105.954c-4.276 0-8.551 2.138-12.827 4.276l-106.889 74.823c-6.413 4.276-138.956 94.063-138.956 203.090 0 85.511 70.547 156.058 151.783 156.058 40.618 0 79.098-14.965 106.889-42.756 27.791 27.791 66.271 42.756 106.889 42.756 83.374 0 151.783-70.547 151.783-156.058 0-109.027-134.681-200.952-138.956-203.090l-106.889-74.823c-4.276-2.138-8.551-4.276-12.827-4.276zM404.042 501.445c-59.858 0-109.027-51.307-109.027-113.303 0-70.547 87.649-145.37 121.854-168.885l94.063-66.271 94.063 66.271c2.138 0 121.854 83.374 121.854 168.885 0 61.996-49.169 113.303-109.027 113.303-36.342 0-70.547-17.102-89.787-47.031-8.551-10.689-27.791-10.689-34.205 0-21.378 29.929-53.445 47.031-89.787 47.031z" />
<glyph unicode="&#xe951;" glyph-name="service-printing" d="M220.946 770.921v144.465h588.481v-144.465h42.49v186.954h-673.461v-186.954zM896.531 790.041h-769.062c-70.108 0-127.469-57.361-127.469-127.469v-278.307c0-70.108 57.361-127.469 127.469-127.469h72.232v42.49h-72.232c-46.739 0-84.979 38.241-84.979 84.979v280.432c0 46.739 38.241 84.979 84.979 84.979h769.062v-2.124c46.739 0 84.979-38.241 84.979-84.979v-278.307c0-46.739-38.241-84.979-84.979-84.979h-67.983v-42.49h67.983c70.108 0 127.469 57.361 127.469 127.469v280.432c0 70.108-57.361 125.344-127.469 125.344zM779.685 388.515c16.996 0 29.743-12.747 29.743-29.743v-378.158h-588.481v378.158c0 16.996 12.747 29.743 29.743 29.743 0 0 528.996 0 528.996 0zM779.685 431.004h-528.996c-40.365 0-72.232-31.867-72.232-72.232v-420.647h673.461v420.647c0 40.365-31.867 72.232-72.232 72.232zM939.021 683.817c0-11.733-9.512-21.245-21.245-21.245s-21.245 9.512-21.245 21.245c0 11.733 9.512 21.245 21.245 21.245s21.245-9.512 21.245-21.245z" />
<glyph unicode="&#xe952;" glyph-name="service-priority-visa" d="M842.667 960h-533.333c-12.8 0-21.333-8.533-21.333-21.333v-981.333c0-12.8 8.533-21.333 21.333-21.333h533.333c100.267 0 181.333 85.333 181.333 189.867v644.267c0 104.533-81.067 189.867-181.333 189.867zM981.333 125.867c0-81.067-61.867-147.2-138.667-147.2h-512v938.667h512c76.8 0 138.667-66.133 138.667-147.2v-644.267zM657.067 663.467c-117.333 0-213.333-96-213.333-213.333s96-213.333 213.333-213.333 213.333 96 213.333 213.333-96 213.333-213.333 213.333zM825.6 469.333h-68.267c-2.133 59.733-14.933 104.533-25.6 134.4 51.2-25.6 87.467-74.667 93.867-134.4zM678.4 618.667v0c2.133-2.133 34.133-57.6 36.267-149.333h-115.2c4.267 93.867 36.267 149.333 36.267 149.333v0c6.4 0 14.933 2.133 21.333 2.133s14.933 0 21.333-2.133zM582.4 603.733c-10.667-29.867-23.467-74.667-25.6-134.4h-68.267c6.4 59.733 42.667 108.8 93.867 134.4zM488.533 426.667h68.267c4.267-38.4 10.667-83.2 27.733-130.133-51.2 23.467-87.467 72.533-96 130.133zM635.733 281.6c-21.333 53.333-29.867 100.267-34.133 142.933h113.067c-4.267-40.533-14.933-89.6-34.133-142.933-8.533-2.133-14.933-2.133-23.467-2.133-6.4 0-14.933 0-21.333 2.133zM731.733 296.533c14.933 46.933 23.467 91.733 25.6 130.133h68.267c-8.533-57.6-44.8-104.533-93.867-130.133zM206.933 277.333h-53.333c-12.8 0-21.333-8.533-21.333-21.333s8.533-21.333 21.333-21.333h53.333c12.8 0 21.333 8.533 21.333 21.333s-8.533 21.333-21.333 21.333zM206.933 663.467h-185.6c-12.8 0-21.333-8.533-21.333-21.333s8.533-21.333 21.333-21.333h185.6c12.8 0 21.333 8.533 21.333 21.333s-8.533 21.333-21.333 21.333zM206.933 469.333h-123.733c-12.8 0-21.333-8.533-21.333-21.333s8.533-21.333 21.333-21.333h123.733c12.8 0 21.333 8.533 21.333 21.333s-8.533 21.333-21.333 21.333z" />
<glyph unicode="&#xe953;" glyph-name="service-private-enrolment-service" d="M707.969-64h-389.891c-38.561 0-72.837 34.276-72.837 72.837v443.448c0 77.121 62.126 139.247 139.247 139.247h128.536c53.556 0 100.686 47.13 100.686 100.686 0 55.699-44.987 100.686-100.686 100.686-40.703 0-77.121-25.707-94.259-62.126-17.138-40.703-66.41-59.983-109.255-42.845-40.703 17.138-62.126 66.41-44.987 109.255 42.845 98.544 139.247 162.812 246.36 162.812 143.531 0 261.356-111.397 267.782-257.071v0-694.092c2.142-38.561-32.134-72.837-70.695-72.837zM384.488 548.686c-53.556 0-96.402-42.845-96.402-96.402v-443.448c0-14.996 14.996-29.992 29.992-29.992h389.891c14.996 0 29.992 14.996 29.992 29.992v694.092c-6.427 119.967-104.971 214.226-224.937 214.226-89.975 0-171.381-55.699-207.799-137.105-8.569-19.28 2.142-44.987 21.423-53.556s44.987 2.142 53.556 21.423c23.565 53.556 74.979 87.833 132.82 87.833 79.264 0 143.531-64.268 143.531-143.531 0-77.121-66.41-143.531-143.531-143.531h-128.536zM444.471 124.519c-4.285 0-8.569 2.142-12.854 4.285-8.569 6.427-10.711 19.28-6.427 27.849l38.561 68.552-72.837 32.134c-10.711 4.285-14.996 14.996-12.854 25.707s14.996 17.138 25.707 14.996l79.264-14.996 8.569 79.264c2.142 10.711 10.711 19.28 21.423 19.28 0 0 0 0 0 0 10.711 0 19.28-8.569 21.423-19.28l10.711-79.264 79.264 14.996c10.711 2.142 21.423-4.285 23.565-14.996s-2.142-21.423-12.854-25.707l-72.837-32.134 38.561-68.552c6.427-8.569 2.142-21.423-6.427-27.849s-21.423-6.427-27.849 2.142l-55.699 57.841-53.556-57.841c-2.142-4.285-6.427-6.427-12.854-6.427z" />
<glyph unicode="&#xe954;" glyph-name="service-registered-traveller-assistance" d="M723.609 917.244c40.618 0 72.685-32.067 72.685-72.685v-793.119c0-40.618-32.067-72.685-72.685-72.685h-421.144c-40.618 0-72.685 32.067-72.685 72.685v793.119c0 40.618 32.067 72.685 72.685 72.685h421.144zM723.609 960h-421.144c-64.134 0-115.44-51.307-115.44-115.44v-793.119c0-64.134 51.307-115.44 115.44-115.44h419.006c64.134 0 115.44 51.307 115.44 115.44v793.119c2.138 61.996-49.169 115.44-113.303 115.44zM317.429 149.779c0-11.807-9.571-21.378-21.378-21.378s-21.378 9.571-21.378 21.378c0 11.807 9.571 21.378 21.378 21.378s21.378-9.571 21.378-21.378zM405.078 149.779c0-11.807-9.571-21.378-21.378-21.378s-21.378 9.571-21.378 21.378c0 11.807 9.571 21.378 21.378 21.378s21.378-9.571 21.378-21.378zM490.59 149.779c0-11.807-9.571-21.378-21.378-21.378s-21.378 9.571-21.378 21.378c0 11.807 9.571 21.378 21.378 21.378s21.378-9.571 21.378-21.378zM578.239 149.779c0-11.807-9.571-21.378-21.378-21.378s-21.378 9.571-21.378 21.378c0 11.807 9.571 21.378 21.378 21.378s21.378-9.571 21.378-21.378zM663.751 149.779c0-11.807-9.571-21.378-21.378-21.378s-21.378 9.571-21.378 21.378c0 11.807 9.571 21.378 21.378 21.378s21.378-9.571 21.378-21.378zM751.4 149.779c0-11.807-9.571-21.378-21.378-21.378s-21.378 9.571-21.378 21.378c0 11.807 9.571 21.378 21.378 21.378s21.378-9.571 21.378-21.378zM368.736 429.829c-4.276 0-8.551 0-10.689 2.138l-47.031 27.791c-10.689 6.413-12.827 19.24-8.551 29.929 6.413 10.689 19.24 12.827 29.929 8.551l38.48-23.516 136.818 42.756-141.094 74.823c-10.689 6.413-14.965 19.24-8.551 27.791s19.24 14.965 27.791 8.551l179.574-94.063c0 0 0 0 0 0l123.992 38.48c10.689 4.276 23.516-2.138 25.653-14.965s-2.138-23.516-14.965-25.653l-324.944-102.614c-2.138 0-4.276 0-6.413 0z" />
<glyph unicode="&#xe955;" glyph-name="service-settlement-visa-courier-service" d="M722.572 639.332c-23.516 23.516-55.582 38.48-89.787 38.48h-44.894c0 2.138 0 2.138 0 2.138v235.157c-76.96 34.205-149.645 44.894-213.779 44.894-128.267 0-218.054-44.894-218.054-44.894v-235.157c0 0 0 0 0-2.138h-34.205c-68.409 0-121.854-55.582-121.854-121.854v-399.766c0-68.409 53.445-119.716 119.716-121.854 8.551-55.582 55.582-98.338 113.303-98.338s104.752 42.756 113.303 98.338h320.668c8.551-55.582 55.582-98.338 113.303-98.338s104.752 42.756 113.303 98.338h36.342c53.445 0 94.063 42.756 94.063 94.063v181.712l-301.428 329.219zM542.998 887.315v-205.228c0-10.689-12.827-162.472-166.747-220.192l-6.413-2.138h-2.138c-156.058 57.72-168.885 209.503-168.885 220.192v85.511l40.618-21.378c2.138-2.138 6.413-2.138 8.551-2.138 8.551 0 14.965 4.276 17.102 12.827 6.413 10.689 2.138 23.516-8.551 27.791l-57.72 27.791v51.307l126.129-61.996c2.138-2.138 6.413-2.138 8.551-2.138 8.551 0 14.965 4.276 19.24 12.827 4.276 10.689 0 23.516-10.689 27.791l-115.44 55.582c36.342 12.827 87.649 23.516 147.507 23.516 57.72 0 115.44-10.689 168.885-29.929zM233.019-21.244c-40.618 0-72.685 32.067-72.685 72.685s32.067 72.685 72.685 72.685c40.618 0 72.685-32.067 72.685-72.685s-32.067-72.685-72.685-72.685zM780.292-21.244c-40.618 0-72.685 32.067-72.685 72.685s32.067 72.685 72.685 72.685 72.685-32.067 72.685-72.685-32.067-72.685-72.685-72.685zM981.244 128.401c0-27.791-23.516-51.307-51.307-51.307h-36.342c-10.689 51.307-57.72 89.787-113.303 89.787s-100.476-38.48-113.303-89.787h-320.668c-10.689 51.307-57.72 89.787-113.303 89.787s-100.476-38.48-113.303-89.787c-42.756 0-76.96 36.342-76.96 79.098v399.766c0 42.756 36.342 79.098 79.098 79.098 0 0 21.378 0 40.618 0 14.965-59.858 57.72-166.747 192.401-215.916l14.965-4.276 19.24 4.276c132.543 49.169 177.436 156.058 192.401 215.916 23.516 0 51.307 0 51.307 0 21.378 0 42.756-8.551 57.72-25.653l290.739-316.392v-164.61z" />
<glyph unicode="&#xe956;" glyph-name="service-settlement-visa-scanning-service" d="M803.713 155.277c-12.773 0-21.289 8.516-21.289 21.289v621.638c0 65.996-48.965 119.218-112.832 119.218h-421.522v-610.994c0-12.773-8.516-21.289-21.289-21.289s-21.289 8.516-21.289 21.289v632.283c0 12.773 8.516 21.289 21.289 21.289h442.811c87.285 0 155.41-70.254 155.41-161.796v-621.638c0-12.773-8.516-21.289-21.289-21.289zM575.921-64c-10.644 0-21.289 2.129-29.805 4.258l-336.366 114.96-93.672-21.289c-10.644-2.129-21.289 2.129-23.418 12.773-63.867 151.152 0 234.179 2.129 238.437s6.387 6.387 12.773 8.516l170.312 38.32c2.129 0 6.387 0 8.516 0l321.464-72.383c46.836-8.516 89.414-44.707 108.574-91.543l4.258-6.387 97.929 29.805c40.449 14.902 91.543 4.258 125.605-27.676 12.773-12.773 17.031-29.805 14.902-46.836s-14.902-29.805-29.805-38.32l-310.819-131.992c-14.902-8.516-29.805-10.644-42.578-10.644zM209.751 97.796c2.129 0 4.258 0 6.387-2.129l342.753-114.96c10.644-4.258 27.676-4.258 40.449 2.129l310.819 131.992c2.129 2.129 4.258 4.258 4.258 6.387s0 4.258-2.129 8.516c-21.289 21.289-55.351 27.676-83.027 19.16l-178.827-53.222c-17.031-6.387-36.191-6.387-55.351 0l-180.956 48.965c-10.644 2.129-17.031 14.902-14.902 25.547s14.902 19.16 25.547 14.902l180.956-48.965c10.644-2.129 21.289-4.258 29.805 0l38.32 12.773v2.129c-14.902 36.191-44.707 59.609-78.769 68.125l-317.206 72.383-157.538-36.191c-10.644-17.031-36.191-76.64 0-172.441l83.027 19.16c2.129-4.258 4.258-4.258 6.387-4.258zM688.753 391.584h-347.010c-12.773 0-21.289 8.516-21.289 21.289s8.516 21.289 21.289 21.289h347.010c12.773 0 21.289-8.516 21.289-21.289s-8.516-21.289-21.289-21.289zM450.316 483.127h-108.574c-12.773 0-21.289 8.516-21.289 21.289s8.516 21.289 21.289 21.289h108.574c12.773 0 21.289-8.516 21.289-21.289s-8.516-21.289-21.289-21.289z" />
<glyph unicode="&#xe957;" glyph-name="service-silver" d="M747.733 917.333l102.4-102.4v-731.733l-102.4-102.4h-469.333l-102.4 102.4v731.733l102.4 102.4h469.333zM764.8 960h-505.6l-128-128v-768l128-128h505.6l128 128v768l-128 128zM694.4 354.133c-6.4 0-10.667 2.133-14.933 6.4l-32 34.133-32-34.133c-6.4-8.533-19.2-8.533-27.733-2.133s-10.667 19.2-6.4 27.733l23.467 40.533-42.667 19.2c-10.667 4.267-14.933 14.933-10.667 25.6s14.933 17.067 25.6 14.933l44.8-10.667 6.4 46.933c2.133 10.667 10.667 19.2 21.333 19.2s19.2-8.533 21.333-19.2l6.4-46.933 44.8 10.667c10.667 2.133 21.333-4.267 25.6-14.933s-2.133-21.333-10.667-25.6l-42.667-19.2 23.467-40.533c6.4-8.533 2.133-21.333-6.4-27.733-8.533-2.133-12.8-4.267-17.067-4.267zM423.467 354.133c-6.4 0-10.667 2.133-14.933 6.4l-32 34.133-32-34.133c-6.4-8.533-19.2-8.533-27.733-2.133s-10.667 19.2-6.4 27.733l23.467 40.533-42.667 19.2c-10.667 4.267-14.933 14.933-10.667 25.6s14.933 17.067 25.6 14.933l44.8-10.667 6.4 46.933c2.133 10.667 10.667 19.2 21.333 19.2 0 0 0 0 0 0 10.667 0 19.2-8.533 21.333-19.2l4.267-46.933 46.933 10.667c10.667 2.133 21.333-4.267 25.6-14.933s-2.133-21.333-10.667-25.6l-42.667-19.2 23.467-40.533c6.4-8.533 2.133-21.333-6.4-27.733-8.533-2.133-12.8-4.267-17.067-4.267z" />
<glyph unicode="&#xe958;" glyph-name="service-sms-update-service" d="M823.884 766.27h-127.734v80.898c0 63.867-48.965 112.832-112.832 112.832h-364.042c-63.867 0-112.832-48.965-112.832-112.832v-798.337c0-63.867 48.965-112.832 112.832-112.832h364.042c59.609 0 110.703 48.965 112.832 112.832v319.335h127.734c53.222 0 93.672 40.449 93.672 93.672v210.761c0 53.222-40.449 93.672-93.672 93.672zM653.572 48.832c-2.129-40.449-31.933-70.254-70.254-70.254h-364.042c-40.449 0-70.254 29.805-70.254 70.254v798.337c0 40.449 29.805 70.254 70.254 70.254h364.042c40.449 0 70.254-29.805 70.254-70.254v-80.898h-178.827c-53.222 0-93.672-40.449-93.672-93.672v-210.761c0-51.094 40.449-93.672 91.543-93.672h6.387v-91.543c0-8.516 4.258-14.902 12.773-19.16 2.129-2.129 6.387-2.129 8.516-2.129 4.258 0 10.644 2.129 14.902 6.387l121.347 106.445h17.031v-319.335zM874.977 461.838c0-27.676-23.418-51.094-51.094-51.094h-195.859c-6.387 0-10.644-2.129-14.902-6.387l-91.543-80.898v65.996c0 12.773-8.516 21.289-21.289 21.289h-27.676c-27.676 0-48.965 23.418-48.965 51.094v210.761c0 27.676 23.418 51.094 51.094 51.094h349.139c27.676 0 51.094-23.418 51.094-51.094v-210.761zM470.486 80.765h-138.378c-12.773 0-21.289-8.516-21.289-21.289s8.516-21.289 21.289-21.289h138.378c12.773 0 21.289 8.516 21.289 21.289s-8.516 21.289-21.289 21.289z" />
<glyph unicode="&#xe959;" glyph-name="service-translation" d="M449.197 372.424h-332.108c-65.996 0-117.089 57.48-117.089 131.992v323.593c0 74.511 51.094 131.992 117.089 131.992h351.268c65.996 0 117.089-57.48 117.089-131.992v-317.206h-42.578v317.206c0 51.094-31.933 89.414-74.511 89.414h-351.268c-42.578 0-74.511-38.32-74.511-89.414v-323.593c0-48.965 34.062-89.414 74.511-89.414h332.108v-42.578zM906.911-64h-351.268c-65.996 0-117.089 57.48-117.089 131.992v323.593c0 74.511 51.094 131.992 117.089 131.992h351.268c65.996 0 117.089-57.48 117.089-131.992v-323.593c0-72.383-53.222-131.992-117.089-131.992zM555.642 480.998c-42.578 0-74.511-38.32-74.511-89.414v-323.593c0-48.965 34.062-89.414 74.511-89.414h351.268c40.449 0 74.511 42.578 74.511 89.414v323.593c0 51.094-31.933 89.414-74.511 89.414h-351.268zM387.459 523.576c-4.258 0-51.094 8.516-95.8 42.578-31.933-25.547-68.125-38.32-95.8-42.578l-6.387 42.578c2.129 0 38.32 6.387 70.254 29.805-17.031 19.16-29.805 44.707-36.191 76.64l42.578 8.516c4.258-23.418 14.902-42.578 27.676-57.48 17.031 21.289 29.805 48.965 31.933 87.285h-180.956v42.578h127.734v55.351h42.578v-55.351h125.605v-42.578h-72.383c-2.129-48.965-19.16-87.285-44.707-114.96 34.062-23.418 68.125-29.805 70.254-29.805l-6.387-42.578zM647.185 95.667l-40.449 14.902 85.156 244.823c2.129 8.516 10.644 14.902 19.16 14.902h31.933c8.516 0 17.031-6.387 19.16-14.902l80.898-244.823-36.191-14.902-27.676 85.156h-100.058l-31.933-85.156zM691.892 223.401h72.383l-34.062 102.187h-2.129l-36.191-102.187z" />
<glyph unicode="&#xe95a;" glyph-name="service-vac-to-vac-courier-service" d="M779.733 960h-535.467c-72.533 0-132.267-57.6-132.267-130.133v-593.067c0-72.533 59.733-130.133 132.267-130.133h117.333l134.4-162.133c4.267-6.4 10.667-8.533 17.067-8.533s12.8 2.133 17.067 8.533l132.267 162.133h117.333c72.533 0 132.267 57.6 132.267 130.133v593.067c0 72.533-59.733 130.133-132.267 130.133zM869.333 236.8c0-49.067-40.533-87.467-89.6-87.467h-128c-6.4 0-12.8-4.267-17.067-8.533l-121.6-151.467-123.733 151.467c-4.267 6.4-10.667 8.533-17.067 8.533h-128c-49.067 0-89.6 38.4-89.6 87.467v593.067c0 49.067 40.533 87.467 89.6 87.467h535.467c49.067 0 89.6-38.4 89.6-87.467v-593.067zM510.933 806.4c-110.933 0-202.667-89.6-202.667-198.4 0-110.933 89.6-198.4 202.667-198.4s202.667 89.6 202.667 198.4-89.6 198.4-202.667 198.4zM668.8 627.2h-61.867c-2.133 51.2-10.667 91.733-21.333 117.333 44.8-21.333 76.8-66.133 83.2-117.333zM532.267 761.6c6.4-12.8 29.867-59.733 32-134.4h-108.8c2.133 74.667 25.6 121.6 32 134.4 8.533 2.133 14.933 2.133 23.467 2.133 6.4 0 14.933 0 21.333-2.133zM434.133 744.533c-10.667-27.733-19.2-66.133-21.333-117.333h-59.733c6.4 49.067 36.267 93.867 81.067 117.333zM353.067 584.533h59.733c4.267-34.133 10.667-72.533 23.467-115.2-44.8 23.467-74.667 66.133-83.2 115.2zM489.6 454.4c-19.2 49.067-27.733 91.733-32 130.133h106.667c-4.267-38.4-12.8-81.067-32-130.133-6.4 0-14.933-2.133-21.333-2.133s-14.933 0-21.333 2.133zM581.333 469.333c14.933 42.667 21.333 81.067 25.6 115.2h61.867c-8.533-51.2-40.533-93.867-87.467-115.2zM649.6 300.8h-275.2c-12.8 0-21.333-8.533-21.333-21.333s8.533-21.333 21.333-21.333h275.2c12.8 0 21.333 8.533 21.333 21.333s-8.533 21.333-21.333 21.333z" />
<glyph unicode="&#xe95b;" glyph-name="service-vfs-premium-courier-500" d="M292.571 341.42v10.449h45.976v-10.449c0-14.629 8.359-22.988 22.988-22.988s22.988 8.359 22.988 22.988v83.592c0 14.629-8.359 22.988-22.988 22.988s-22.988-8.359-22.988-22.988h-45.976v169.273h135.837v-45.976h-89.861v-73.143c8.359 10.449 18.808 16.718 33.437 16.718 37.616 0 56.424-18.808 56.424-56.424v-96.131c0-45.976-22.988-68.963-68.963-68.963-43.886 2.090-66.873 25.078-66.873 71.053zM587.233 527.412v-181.812c0-45.976-22.988-68.963-68.963-68.963s-68.963 22.988-68.963 68.963v181.812c0 45.976 22.988 68.963 68.963 68.963 45.976-2.090 68.963-25.078 68.963-68.963zM520.359 550.4c-14.629 0-22.988-8.359-22.988-22.988v-181.812c0-14.629 8.359-22.988 22.988-22.988s22.988 8.359 22.988 22.988v181.812c-2.090 14.629-8.359 22.988-22.988 22.988zM746.057 527.412v-181.812c0-45.976-22.988-68.963-68.963-68.963s-68.963 22.988-68.963 68.963v181.812c0 45.976 22.988 68.963 68.963 68.963 45.976-2.090 68.963-25.078 68.963-68.963zM679.184 550.4c-14.629 0-22.988-8.359-22.988-22.988v-181.812c0-14.629 8.359-22.988 22.988-22.988s22.988 8.359 22.988 22.988v181.812c-2.090 14.629-8.359 22.988-22.988 22.988zM520.359 899.396c48.065 0 89.861-33.437 100.31-79.412 20.898 20.898 48.065 33.437 75.233 33.437 16.718 0 35.527-4.18 50.155-12.539 43.886-25.078 62.694-75.233 48.065-121.208 10.449 4.18 20.898 4.18 31.347 4.18 35.527 0 68.963-18.808 89.861-50.155 27.167-43.886 14.629-100.31-22.988-131.657 50.155-8.359 87.771-50.155 87.771-102.4 0-48.065-33.437-89.861-79.412-100.31 33.437-31.347 43.886-83.592 18.808-127.478-18.808-33.437-54.335-52.245-89.861-52.245-10.449 0-20.898 2.090-29.257 4.18 14.629-45.976-4.18-96.131-45.976-121.208-16.718-10.449-35.527-14.629-52.245-14.629-31.347 0-60.604 12.539-79.412 37.616-8.359-50.155-50.155-87.771-102.4-87.771-48.065 0-89.861 33.437-100.31 79.412-20.898-20.898-48.065-33.437-75.233-33.437-16.718 0-35.527 4.18-50.155 12.539-43.886 25.078-62.694 75.233-48.065 121.208-10.449-4.18-20.898-4.18-31.347-4.18-35.527 0-68.963 18.808-89.861 50.155-27.167 43.886-14.629 100.31 22.988 131.657-50.155 8.359-87.771 50.155-87.771 102.4 0 48.065 33.437 89.861 79.412 100.31-33.437 31.347-43.886 83.592-18.808 127.478 18.808 33.437 54.335 52.245 89.861 52.245 10.449 0 20.898-2.090 29.257-4.18-14.629 45.976 4.18 96.131 45.976 121.208 16.718 10.449 35.527 14.629 52.245 14.629 31.347 0 60.604-12.539 79.412-37.616 6.269 50.155 50.155 87.771 102.4 87.771zM520.359 941.192c-50.155 0-94.041-25.078-121.208-62.694-18.808 8.359-39.706 14.629-62.694 14.629-25.078 0-52.245-6.269-73.143-20.898-41.796-25.078-66.873-66.873-71.053-110.759-45.976-4.18-87.771-31.347-110.759-73.143s-25.078-89.861-6.269-131.657c-35.527-27.167-58.514-68.963-58.514-117.029 0-50.155 25.078-94.041 62.694-121.208-20.898-41.796-18.808-91.951 6.269-135.837 22.988-39.706 64.784-66.873 110.759-71.053 4.18-45.976 31.347-85.682 73.143-110.759 20.898-12.539 45.976-18.808 71.053-18.808 20.898 0 41.796 4.18 58.514 12.539 27.167-35.527 68.963-58.514 117.029-58.514 50.155 0 94.041 25.078 121.208 62.694 18.808-8.359 39.706-14.629 62.694-14.629 25.078 0 52.245 6.269 73.143 20.898 41.796 25.078 66.873 66.873 71.053 110.759 45.976 4.18 87.771 31.347 110.759 73.143s25.078 89.861 6.269 131.657c35.527 27.167 58.514 68.963 58.514 117.029 0 50.155-25.078 94.041-62.694 121.208 20.898 41.796 18.808 91.951-6.269 135.837-22.988 39.706-64.784 66.873-110.759 71.053-4.18 45.976-31.347 85.682-73.143 110.759-20.898 12.539-45.976 18.808-71.053 18.808-20.898 0-41.796-4.18-58.514-12.539-27.167 35.527-71.053 58.514-117.029 58.514z" />
<glyph unicode="&#xe95c;" glyph-name="service-vfs-premium-courier-700" horiz-adv-x="1003" d="M401.241 596.376v-45.976l-68.963-271.673h-45.976l68.963 271.673h-79.412v45.976zM560.065 527.412v-181.812c0-45.976-22.988-68.963-68.963-68.963s-68.963 22.988-68.963 68.963v181.812c0 45.976 22.988 68.963 68.963 68.963s68.963-22.988 68.963-68.963zM491.102 550.4c-14.629 0-22.988-8.359-22.988-22.988v-181.812c0-14.629 8.359-22.988 22.988-22.988s22.988 8.359 22.988 22.988v181.812c0 14.629-8.359 22.988-22.988 22.988zM718.89 527.412v-181.812c0-45.976-22.988-68.963-68.963-68.963s-68.963 22.988-68.963 68.963v181.812c0 45.976 22.988 68.963 68.963 68.963s68.963-22.988 68.963-68.963zM649.927 550.4c-14.629 0-22.988-8.359-22.988-22.988v-181.812c0-14.629 8.359-22.988 22.988-22.988s22.988 8.359 22.988 22.988v181.812c0 14.629-8.359 22.988-22.988 22.988zM503.641 899.396c48.065 0 89.861-33.437 100.31-79.412 20.898 20.898 48.065 33.437 75.233 33.437 16.718 0 35.527-4.18 50.155-12.539 43.886-25.078 62.694-75.233 48.065-121.208 10.449 4.18 20.898 4.18 31.347 4.18 35.527 0 68.963-18.808 89.861-50.155 27.167-43.886 14.629-100.31-22.988-131.657 50.155-8.359 87.771-50.155 87.771-102.4 0-48.065-33.437-89.861-79.412-100.31 33.437-31.347 43.886-83.592 18.808-127.478-18.808-33.437-54.335-52.245-89.861-52.245-10.449 0-20.898 2.090-29.257 4.18 14.629-45.976-4.18-96.131-45.976-121.208-16.718-10.449-35.527-14.629-52.245-14.629-31.347 0-60.604 12.539-79.412 37.616-8.359-50.155-50.155-87.771-102.4-87.771-48.065 0-89.861 33.437-100.31 79.412-20.898-20.898-48.065-33.437-75.233-33.437-16.718 0-35.527 4.18-50.155 12.539-43.886 25.078-62.694 75.233-48.065 121.208-10.449-4.18-20.898-4.18-31.347-4.18-35.527 0-68.963 18.808-89.861 50.155-27.167 43.886-14.629 100.31 22.988 131.657-50.155 8.359-87.771 50.155-87.771 102.4 0 48.065 33.437 89.861 79.412 100.31-33.437 31.347-43.886 83.592-18.808 127.478 18.808 33.437 54.335 52.245 89.861 52.245 10.449 0 20.898-2.090 29.257-4.18-14.629 45.976 4.18 96.131 45.976 121.208 16.718 10.449 35.527 14.629 52.245 14.629 31.347 0 60.604-12.539 79.412-37.616 6.269 50.155 50.155 87.771 102.4 87.771zM503.641 941.192c-50.155 0-94.041-25.078-121.208-62.694-18.808 8.359-39.706 14.629-62.694 14.629-25.078 0-52.245-6.269-73.143-20.898-41.796-25.078-66.873-66.873-71.053-110.759-45.976-4.18-87.771-31.347-110.759-73.143s-25.078-89.861-6.269-131.657c-35.527-27.167-58.514-68.963-58.514-117.029 0-50.155 25.078-94.041 62.694-121.208-20.898-41.796-18.808-91.951 6.269-135.837 22.988-39.706 64.784-66.873 110.759-71.053 4.18-45.976 31.347-85.682 73.143-110.759 20.898-12.539 45.976-18.808 71.053-18.808 20.898 0 41.796 4.18 58.514 12.539 27.167-35.527 68.963-58.514 117.029-58.514 50.155 0 94.041 25.078 121.208 62.694 18.808-8.359 39.706-14.629 62.694-14.629 25.078 0 52.245 6.269 73.143 20.898 41.796 25.078 66.873 66.873 71.053 110.759 45.976 4.18 87.771 31.347 110.759 73.143s25.078 89.861 6.269 131.657c35.527 27.167 58.514 68.963 58.514 117.029 0 50.155-25.078 94.041-62.694 121.208 20.898 41.796 18.808 91.951-6.269 135.837-22.988 39.706-64.784 66.873-110.759 71.053-4.18 45.976-31.347 85.682-73.143 110.759-20.898 12.539-45.976 18.808-71.053 18.808-20.898 0-41.796-4.18-58.514-12.539-27.167 37.616-71.053 58.514-117.029 58.514z" />
<glyph unicode="&#xe95d;" glyph-name="service-walk-in-lounge" d="M806.852 755.626c55.351 0 102.187 46.836 102.187 102.187s-46.836 102.187-102.187 102.187c-55.351 0-102.187-46.836-102.187-102.187s46.836-102.187 102.187-102.187zM806.852 917.422c31.933 0 59.609-27.676 59.609-59.609s-27.676-59.609-59.609-59.609-59.609 27.676-59.609 59.609 27.676 59.609 59.609 59.609zM811.11 721.563c-44.707 2.129-89.414-14.902-121.347-46.836-23.418-21.289-38.32-46.836-44.707-74.511-25.547 14.902-55.351 23.418-85.156 23.418h-234.179c-46.836 0-91.543-21.289-121.347-55.351-29.805-36.191-42.578-83.027-34.062-129.863l6.387-31.933c-21.289 10.644-44.707 14.902-68.125 10.644l-59.609-12.773 48.965-274.628c10.644-65.996 68.125-112.832 136.249-112.832h12.773v-78.769h42.578v78.769h298.046v-78.769h42.578v78.769h12.773c25.547 0 48.965 6.387 70.254 19.16l10.644-78.769c2.129-10.644 10.644-19.16 21.289-19.16h114.961c2.129-2.129 4.258-2.129 8.516-2.129 10.644 0 19.16 8.516 21.289 19.16l25.547 210.761c4.258 44.707 23.418 83.027 53.222 114.961 4.258 4.258 6.387 8.516 6.387 14.902v251.21c0 93.672-74.511 172.441-163.925 174.57zM236.308 540.607c21.289 25.547 53.222 40.449 87.285 40.449h234.179c31.933 0 59.609-10.644 80.898-31.933v-210.761c-2.129-4.258-2.129-10.644-4.258-14.902l-23.418-127.734h-347.010l-23.418 127.734c-2.129 8.516-2.129 14.902-6.387 23.418l-23.418 100.058c-6.387 34.062 2.129 68.125 25.547 93.672zM642.927 59.476h-408.748c-46.836 0-87.285 31.933-93.672 78.769l-40.449 232.050 17.031 2.129c19.16 4.258 38.32 0 55.351-10.644 8.516-6.387 17.031-14.902 21.289-25.547l6.387-25.547h2.129l27.676-157.538h419.393l17.031 102.187c14.902-27.676 27.676-57.48 31.933-91.543l8.516-76.64c-17.031-17.031-40.449-27.676-63.867-27.676zM932.457 304.299c-31.933-38.32-53.222-83.027-59.609-134.121l-23.418-189.472h-85.156l-23.418 189.472c-6.387 53.222-27.676 102.187-59.609 142.636v240.565c0 34.062 14.902 65.996 38.32 89.414 25.547 23.418 57.48 36.191 91.543 36.191 65.996-2.129 121.347-61.738 121.347-131.992v-242.694zM855.817 623.634c-6.387 4.258-14.902 4.258-21.289 0l-48.965-34.062v14.902c0 12.773-8.516 21.289-21.289 21.289s-21.289-8.516-21.289-21.289v-55.351c0-8.516 4.258-14.902 10.644-19.16 4.258-2.129 6.387-2.129 10.644-2.129s8.516 2.129 10.644 2.129l48.965 34.062v-14.902c0-12.773 8.516-21.289 21.289-21.289s21.289 8.516 21.289 21.289v55.351c0 8.516-4.258 14.902-10.644 19.16z" />
</font>
</defs>
</svg>
